<?xml version="1.0" encoding="utf-8" standalone="no"?>
<!DOCTYPE svg PUBLIC "-//W3C//DTD SVG 1.1//EN"
  "http://www.w3.org/Graphics/SVG/1.1/DTD/svg11.dtd">
<svg xmlns:xlink="http://www.w3.org/1999/xlink" width="864pt" height="432pt" viewBox="0 0 864 432" xmlns="http://www.w3.org/2000/svg" version="1.1">
 <metadata>
  <rdf:RDF xmlns:dc="http://purl.org/dc/elements/1.1/" xmlns:cc="http://creativecommons.org/ns#" xmlns:rdf="http://www.w3.org/1999/02/22-rdf-syntax-ns#">
   <cc:Work>
    <dc:type rdf:resource="http://purl.org/dc/dcmitype/StillImage"/>
    <dc:date>2022-07-10T21:46:48.784512</dc:date>
    <dc:format>image/svg+xml</dc:format>
    <dc:creator>
     <cc:Agent>
      <dc:title>Matplotlib v3.5.1, https://matplotlib.org/</dc:title>
     </cc:Agent>
    </dc:creator>
   </cc:Work>
  </rdf:RDF>
 </metadata>
 <defs>
  <style type="text/css">*{stroke-linejoin: round; stroke-linecap: butt}</style>
 </defs>
 <g id="figure_1">
  <g id="patch_1">
   <path d="M 0 432 
L 864 432 
L 864 0 
L 0 0 
z
" style="fill: #ffffff"/>
  </g>
  <g id="axes_1">
   <g id="patch_2">
    <path d="M 93.4 350.84 
L 410.195 350.84 
L 410.195 64.64 
L 93.4 64.64 
z
" style="fill: #ffffff"/>
   </g>
   <g id="matplotlib.axis_1">
    <g id="xtick_1">
     <g id="line2d_1">
      <defs>
       <path id="m6a8ed4c504" d="M 0 0 
L 0 3.5 
" style="stroke: #000000; stroke-width: 0.8"/>
      </defs>
      <g>
       <use xlink:href="#m6a8ed4c504" x="107.799773" y="350.84" style="stroke: #000000; stroke-width: 0.8"/>
      </g>
     </g>
     <g id="text_1">
      <!-- 0 -->
      <g transform="translate(104.618523 365.438438)scale(0.1 -0.1)">
       <defs>
        <path id="DejaVuSans-30" d="M 2034 4250 
Q 1547 4250 1301 3770 
Q 1056 3291 1056 2328 
Q 1056 1369 1301 889 
Q 1547 409 2034 409 
Q 2525 409 2770 889 
Q 3016 1369 3016 2328 
Q 3016 3291 2770 3770 
Q 2525 4250 2034 4250 
z
M 2034 4750 
Q 2819 4750 3233 4129 
Q 3647 3509 3647 2328 
Q 3647 1150 3233 529 
Q 2819 -91 2034 -91 
Q 1250 -91 836 529 
Q 422 1150 422 2328 
Q 422 3509 836 4129 
Q 1250 4750 2034 4750 
z
" transform="scale(0.015625)"/>
       </defs>
       <use xlink:href="#DejaVuSans-30"/>
      </g>
     </g>
    </g>
    <g id="xtick_2">
     <g id="line2d_2">
      <g>
       <use xlink:href="#m6a8ed4c504" x="165.980673" y="350.84" style="stroke: #000000; stroke-width: 0.8"/>
      </g>
     </g>
     <g id="text_2">
      <!-- 20 -->
      <g transform="translate(159.618173 365.438438)scale(0.1 -0.1)">
       <defs>
        <path id="DejaVuSans-32" d="M 1228 531 
L 3431 531 
L 3431 0 
L 469 0 
L 469 531 
Q 828 903 1448 1529 
Q 2069 2156 2228 2338 
Q 2531 2678 2651 2914 
Q 2772 3150 2772 3378 
Q 2772 3750 2511 3984 
Q 2250 4219 1831 4219 
Q 1534 4219 1204 4116 
Q 875 4013 500 3803 
L 500 4441 
Q 881 4594 1212 4672 
Q 1544 4750 1819 4750 
Q 2544 4750 2975 4387 
Q 3406 4025 3406 3419 
Q 3406 3131 3298 2873 
Q 3191 2616 2906 2266 
Q 2828 2175 2409 1742 
Q 1991 1309 1228 531 
z
" transform="scale(0.015625)"/>
       </defs>
       <use xlink:href="#DejaVuSans-32"/>
       <use xlink:href="#DejaVuSans-30" x="63.623047"/>
      </g>
     </g>
    </g>
    <g id="xtick_3">
     <g id="line2d_3">
      <g>
       <use xlink:href="#m6a8ed4c504" x="224.161573" y="350.84" style="stroke: #000000; stroke-width: 0.8"/>
      </g>
     </g>
     <g id="text_3">
      <!-- 40 -->
      <g transform="translate(217.799073 365.438438)scale(0.1 -0.1)">
       <defs>
        <path id="DejaVuSans-34" d="M 2419 4116 
L 825 1625 
L 2419 1625 
L 2419 4116 
z
M 2253 4666 
L 3047 4666 
L 3047 1625 
L 3713 1625 
L 3713 1100 
L 3047 1100 
L 3047 0 
L 2419 0 
L 2419 1100 
L 313 1100 
L 313 1709 
L 2253 4666 
z
" transform="scale(0.015625)"/>
       </defs>
       <use xlink:href="#DejaVuSans-34"/>
       <use xlink:href="#DejaVuSans-30" x="63.623047"/>
      </g>
     </g>
    </g>
    <g id="xtick_4">
     <g id="line2d_4">
      <g>
       <use xlink:href="#m6a8ed4c504" x="282.342472" y="350.84" style="stroke: #000000; stroke-width: 0.8"/>
      </g>
     </g>
     <g id="text_4">
      <!-- 60 -->
      <g transform="translate(275.979972 365.438438)scale(0.1 -0.1)">
       <defs>
        <path id="DejaVuSans-36" d="M 2113 2584 
Q 1688 2584 1439 2293 
Q 1191 2003 1191 1497 
Q 1191 994 1439 701 
Q 1688 409 2113 409 
Q 2538 409 2786 701 
Q 3034 994 3034 1497 
Q 3034 2003 2786 2293 
Q 2538 2584 2113 2584 
z
M 3366 4563 
L 3366 3988 
Q 3128 4100 2886 4159 
Q 2644 4219 2406 4219 
Q 1781 4219 1451 3797 
Q 1122 3375 1075 2522 
Q 1259 2794 1537 2939 
Q 1816 3084 2150 3084 
Q 2853 3084 3261 2657 
Q 3669 2231 3669 1497 
Q 3669 778 3244 343 
Q 2819 -91 2113 -91 
Q 1303 -91 875 529 
Q 447 1150 447 2328 
Q 447 3434 972 4092 
Q 1497 4750 2381 4750 
Q 2619 4750 2861 4703 
Q 3103 4656 3366 4563 
z
" transform="scale(0.015625)"/>
       </defs>
       <use xlink:href="#DejaVuSans-36"/>
       <use xlink:href="#DejaVuSans-30" x="63.623047"/>
      </g>
     </g>
    </g>
    <g id="xtick_5">
     <g id="line2d_5">
      <g>
       <use xlink:href="#m6a8ed4c504" x="340.523372" y="350.84" style="stroke: #000000; stroke-width: 0.8"/>
      </g>
     </g>
     <g id="text_5">
      <!-- 80 -->
      <g transform="translate(334.160872 365.438438)scale(0.1 -0.1)">
       <defs>
        <path id="DejaVuSans-38" d="M 2034 2216 
Q 1584 2216 1326 1975 
Q 1069 1734 1069 1313 
Q 1069 891 1326 650 
Q 1584 409 2034 409 
Q 2484 409 2743 651 
Q 3003 894 3003 1313 
Q 3003 1734 2745 1975 
Q 2488 2216 2034 2216 
z
M 1403 2484 
Q 997 2584 770 2862 
Q 544 3141 544 3541 
Q 544 4100 942 4425 
Q 1341 4750 2034 4750 
Q 2731 4750 3128 4425 
Q 3525 4100 3525 3541 
Q 3525 3141 3298 2862 
Q 3072 2584 2669 2484 
Q 3125 2378 3379 2068 
Q 3634 1759 3634 1313 
Q 3634 634 3220 271 
Q 2806 -91 2034 -91 
Q 1263 -91 848 271 
Q 434 634 434 1313 
Q 434 1759 690 2068 
Q 947 2378 1403 2484 
z
M 1172 3481 
Q 1172 3119 1398 2916 
Q 1625 2713 2034 2713 
Q 2441 2713 2670 2916 
Q 2900 3119 2900 3481 
Q 2900 3844 2670 4047 
Q 2441 4250 2034 4250 
Q 1625 4250 1398 4047 
Q 1172 3844 1172 3481 
z
" transform="scale(0.015625)"/>
       </defs>
       <use xlink:href="#DejaVuSans-38"/>
       <use xlink:href="#DejaVuSans-30" x="63.623047"/>
      </g>
     </g>
    </g>
    <g id="xtick_6">
     <g id="line2d_6">
      <g>
       <use xlink:href="#m6a8ed4c504" x="398.704272" y="350.84" style="stroke: #000000; stroke-width: 0.8"/>
      </g>
     </g>
     <g id="text_6">
      <!-- 100 -->
      <g transform="translate(389.160522 365.438438)scale(0.1 -0.1)">
       <defs>
        <path id="DejaVuSans-31" d="M 794 531 
L 1825 531 
L 1825 4091 
L 703 3866 
L 703 4441 
L 1819 4666 
L 2450 4666 
L 2450 531 
L 3481 531 
L 3481 0 
L 794 0 
L 794 531 
z
" transform="scale(0.015625)"/>
       </defs>
       <use xlink:href="#DejaVuSans-31"/>
       <use xlink:href="#DejaVuSans-30" x="63.623047"/>
       <use xlink:href="#DejaVuSans-30" x="127.246094"/>
      </g>
     </g>
    </g>
    <g id="text_7">
     <!-- Epochs -->
     <g transform="translate(233.881875 379.116562)scale(0.1 -0.1)">
      <defs>
       <path id="DejaVuSans-45" d="M 628 4666 
L 3578 4666 
L 3578 4134 
L 1259 4134 
L 1259 2753 
L 3481 2753 
L 3481 2222 
L 1259 2222 
L 1259 531 
L 3634 531 
L 3634 0 
L 628 0 
L 628 4666 
z
" transform="scale(0.015625)"/>
       <path id="DejaVuSans-70" d="M 1159 525 
L 1159 -1331 
L 581 -1331 
L 581 3500 
L 1159 3500 
L 1159 2969 
Q 1341 3281 1617 3432 
Q 1894 3584 2278 3584 
Q 2916 3584 3314 3078 
Q 3713 2572 3713 1747 
Q 3713 922 3314 415 
Q 2916 -91 2278 -91 
Q 1894 -91 1617 61 
Q 1341 213 1159 525 
z
M 3116 1747 
Q 3116 2381 2855 2742 
Q 2594 3103 2138 3103 
Q 1681 3103 1420 2742 
Q 1159 2381 1159 1747 
Q 1159 1113 1420 752 
Q 1681 391 2138 391 
Q 2594 391 2855 752 
Q 3116 1113 3116 1747 
z
" transform="scale(0.015625)"/>
       <path id="DejaVuSans-6f" d="M 1959 3097 
Q 1497 3097 1228 2736 
Q 959 2375 959 1747 
Q 959 1119 1226 758 
Q 1494 397 1959 397 
Q 2419 397 2687 759 
Q 2956 1122 2956 1747 
Q 2956 2369 2687 2733 
Q 2419 3097 1959 3097 
z
M 1959 3584 
Q 2709 3584 3137 3096 
Q 3566 2609 3566 1747 
Q 3566 888 3137 398 
Q 2709 -91 1959 -91 
Q 1206 -91 779 398 
Q 353 888 353 1747 
Q 353 2609 779 3096 
Q 1206 3584 1959 3584 
z
" transform="scale(0.015625)"/>
       <path id="DejaVuSans-63" d="M 3122 3366 
L 3122 2828 
Q 2878 2963 2633 3030 
Q 2388 3097 2138 3097 
Q 1578 3097 1268 2742 
Q 959 2388 959 1747 
Q 959 1106 1268 751 
Q 1578 397 2138 397 
Q 2388 397 2633 464 
Q 2878 531 3122 666 
L 3122 134 
Q 2881 22 2623 -34 
Q 2366 -91 2075 -91 
Q 1284 -91 818 406 
Q 353 903 353 1747 
Q 353 2603 823 3093 
Q 1294 3584 2113 3584 
Q 2378 3584 2631 3529 
Q 2884 3475 3122 3366 
z
" transform="scale(0.015625)"/>
       <path id="DejaVuSans-68" d="M 3513 2113 
L 3513 0 
L 2938 0 
L 2938 2094 
Q 2938 2591 2744 2837 
Q 2550 3084 2163 3084 
Q 1697 3084 1428 2787 
Q 1159 2491 1159 1978 
L 1159 0 
L 581 0 
L 581 4863 
L 1159 4863 
L 1159 2956 
Q 1366 3272 1645 3428 
Q 1925 3584 2291 3584 
Q 2894 3584 3203 3211 
Q 3513 2838 3513 2113 
z
" transform="scale(0.015625)"/>
       <path id="DejaVuSans-73" d="M 2834 3397 
L 2834 2853 
Q 2591 2978 2328 3040 
Q 2066 3103 1784 3103 
Q 1356 3103 1142 2972 
Q 928 2841 928 2578 
Q 928 2378 1081 2264 
Q 1234 2150 1697 2047 
L 1894 2003 
Q 2506 1872 2764 1633 
Q 3022 1394 3022 966 
Q 3022 478 2636 193 
Q 2250 -91 1575 -91 
Q 1294 -91 989 -36 
Q 684 19 347 128 
L 347 722 
Q 666 556 975 473 
Q 1284 391 1588 391 
Q 1994 391 2212 530 
Q 2431 669 2431 922 
Q 2431 1156 2273 1281 
Q 2116 1406 1581 1522 
L 1381 1569 
Q 847 1681 609 1914 
Q 372 2147 372 2553 
Q 372 3047 722 3315 
Q 1072 3584 1716 3584 
Q 2034 3584 2315 3537 
Q 2597 3491 2834 3397 
z
" transform="scale(0.015625)"/>
      </defs>
      <use xlink:href="#DejaVuSans-45"/>
      <use xlink:href="#DejaVuSans-70" x="63.183594"/>
      <use xlink:href="#DejaVuSans-6f" x="126.660156"/>
      <use xlink:href="#DejaVuSans-63" x="187.841797"/>
      <use xlink:href="#DejaVuSans-68" x="242.822266"/>
      <use xlink:href="#DejaVuSans-73" x="306.201172"/>
     </g>
    </g>
   </g>
   <g id="matplotlib.axis_2">
    <g id="ytick_1">
     <g id="line2d_7">
      <defs>
       <path id="m7493730f40" d="M 0 0 
L -3.5 0 
" style="stroke: #000000; stroke-width: 0.8"/>
      </defs>
      <g>
       <use xlink:href="#m7493730f40" x="93.4" y="313.077288" style="stroke: #000000; stroke-width: 0.8"/>
      </g>
     </g>
     <g id="text_8">
      <!-- 0.75 -->
      <g transform="translate(64.134375 316.876507)scale(0.1 -0.1)">
       <defs>
        <path id="DejaVuSans-2e" d="M 684 794 
L 1344 794 
L 1344 0 
L 684 0 
L 684 794 
z
" transform="scale(0.015625)"/>
        <path id="DejaVuSans-37" d="M 525 4666 
L 3525 4666 
L 3525 4397 
L 1831 0 
L 1172 0 
L 2766 4134 
L 525 4134 
L 525 4666 
z
" transform="scale(0.015625)"/>
        <path id="DejaVuSans-35" d="M 691 4666 
L 3169 4666 
L 3169 4134 
L 1269 4134 
L 1269 2991 
Q 1406 3038 1543 3061 
Q 1681 3084 1819 3084 
Q 2600 3084 3056 2656 
Q 3513 2228 3513 1497 
Q 3513 744 3044 326 
Q 2575 -91 1722 -91 
Q 1428 -91 1123 -41 
Q 819 9 494 109 
L 494 744 
Q 775 591 1075 516 
Q 1375 441 1709 441 
Q 2250 441 2565 725 
Q 2881 1009 2881 1497 
Q 2881 1984 2565 2268 
Q 2250 2553 1709 2553 
Q 1456 2553 1204 2497 
Q 953 2441 691 2322 
L 691 4666 
z
" transform="scale(0.015625)"/>
       </defs>
       <use xlink:href="#DejaVuSans-30"/>
       <use xlink:href="#DejaVuSans-2e" x="63.623047"/>
       <use xlink:href="#DejaVuSans-37" x="95.410156"/>
       <use xlink:href="#DejaVuSans-35" x="159.033203"/>
      </g>
     </g>
    </g>
    <g id="ytick_2">
     <g id="line2d_8">
      <g>
       <use xlink:href="#m7493730f40" x="93.4" y="265.51717" style="stroke: #000000; stroke-width: 0.8"/>
      </g>
     </g>
     <g id="text_9">
      <!-- 0.80 -->
      <g transform="translate(64.134375 269.316389)scale(0.1 -0.1)">
       <use xlink:href="#DejaVuSans-30"/>
       <use xlink:href="#DejaVuSans-2e" x="63.623047"/>
       <use xlink:href="#DejaVuSans-38" x="95.410156"/>
       <use xlink:href="#DejaVuSans-30" x="159.033203"/>
      </g>
     </g>
    </g>
    <g id="ytick_3">
     <g id="line2d_9">
      <g>
       <use xlink:href="#m7493730f40" x="93.4" y="217.957053" style="stroke: #000000; stroke-width: 0.8"/>
      </g>
     </g>
     <g id="text_10">
      <!-- 0.85 -->
      <g transform="translate(64.134375 221.756272)scale(0.1 -0.1)">
       <use xlink:href="#DejaVuSans-30"/>
       <use xlink:href="#DejaVuSans-2e" x="63.623047"/>
       <use xlink:href="#DejaVuSans-38" x="95.410156"/>
       <use xlink:href="#DejaVuSans-35" x="159.033203"/>
      </g>
     </g>
    </g>
    <g id="ytick_4">
     <g id="line2d_10">
      <g>
       <use xlink:href="#m7493730f40" x="93.4" y="170.396935" style="stroke: #000000; stroke-width: 0.8"/>
      </g>
     </g>
     <g id="text_11">
      <!-- 0.90 -->
      <g transform="translate(64.134375 174.196154)scale(0.1 -0.1)">
       <defs>
        <path id="DejaVuSans-39" d="M 703 97 
L 703 672 
Q 941 559 1184 500 
Q 1428 441 1663 441 
Q 2288 441 2617 861 
Q 2947 1281 2994 2138 
Q 2813 1869 2534 1725 
Q 2256 1581 1919 1581 
Q 1219 1581 811 2004 
Q 403 2428 403 3163 
Q 403 3881 828 4315 
Q 1253 4750 1959 4750 
Q 2769 4750 3195 4129 
Q 3622 3509 3622 2328 
Q 3622 1225 3098 567 
Q 2575 -91 1691 -91 
Q 1453 -91 1209 -44 
Q 966 3 703 97 
z
M 1959 2075 
Q 2384 2075 2632 2365 
Q 2881 2656 2881 3163 
Q 2881 3666 2632 3958 
Q 2384 4250 1959 4250 
Q 1534 4250 1286 3958 
Q 1038 3666 1038 3163 
Q 1038 2656 1286 2365 
Q 1534 2075 1959 2075 
z
" transform="scale(0.015625)"/>
       </defs>
       <use xlink:href="#DejaVuSans-30"/>
       <use xlink:href="#DejaVuSans-2e" x="63.623047"/>
       <use xlink:href="#DejaVuSans-39" x="95.410156"/>
       <use xlink:href="#DejaVuSans-30" x="159.033203"/>
      </g>
     </g>
    </g>
    <g id="ytick_5">
     <g id="line2d_11">
      <g>
       <use xlink:href="#m7493730f40" x="93.4" y="122.836818" style="stroke: #000000; stroke-width: 0.8"/>
      </g>
     </g>
     <g id="text_12">
      <!-- 0.95 -->
      <g transform="translate(64.134375 126.636037)scale(0.1 -0.1)">
       <use xlink:href="#DejaVuSans-30"/>
       <use xlink:href="#DejaVuSans-2e" x="63.623047"/>
       <use xlink:href="#DejaVuSans-39" x="95.410156"/>
       <use xlink:href="#DejaVuSans-35" x="159.033203"/>
      </g>
     </g>
    </g>
    <g id="ytick_6">
     <g id="line2d_12">
      <g>
       <use xlink:href="#m7493730f40" x="93.4" y="75.2767" style="stroke: #000000; stroke-width: 0.8"/>
      </g>
     </g>
     <g id="text_13">
      <!-- 1.00 -->
      <g transform="translate(64.134375 79.075919)scale(0.1 -0.1)">
       <use xlink:href="#DejaVuSans-31"/>
       <use xlink:href="#DejaVuSans-2e" x="63.623047"/>
       <use xlink:href="#DejaVuSans-30" x="95.410156"/>
       <use xlink:href="#DejaVuSans-30" x="159.033203"/>
      </g>
     </g>
    </g>
    <g id="text_14">
     <!-- Accuracy -->
     <g transform="translate(58.054688 230.568125)rotate(-90)scale(0.1 -0.1)">
      <defs>
       <path id="DejaVuSans-41" d="M 2188 4044 
L 1331 1722 
L 3047 1722 
L 2188 4044 
z
M 1831 4666 
L 2547 4666 
L 4325 0 
L 3669 0 
L 3244 1197 
L 1141 1197 
L 716 0 
L 50 0 
L 1831 4666 
z
" transform="scale(0.015625)"/>
       <path id="DejaVuSans-75" d="M 544 1381 
L 544 3500 
L 1119 3500 
L 1119 1403 
Q 1119 906 1312 657 
Q 1506 409 1894 409 
Q 2359 409 2629 706 
Q 2900 1003 2900 1516 
L 2900 3500 
L 3475 3500 
L 3475 0 
L 2900 0 
L 2900 538 
Q 2691 219 2414 64 
Q 2138 -91 1772 -91 
Q 1169 -91 856 284 
Q 544 659 544 1381 
z
M 1991 3584 
L 1991 3584 
z
" transform="scale(0.015625)"/>
       <path id="DejaVuSans-72" d="M 2631 2963 
Q 2534 3019 2420 3045 
Q 2306 3072 2169 3072 
Q 1681 3072 1420 2755 
Q 1159 2438 1159 1844 
L 1159 0 
L 581 0 
L 581 3500 
L 1159 3500 
L 1159 2956 
Q 1341 3275 1631 3429 
Q 1922 3584 2338 3584 
Q 2397 3584 2469 3576 
Q 2541 3569 2628 3553 
L 2631 2963 
z
" transform="scale(0.015625)"/>
       <path id="DejaVuSans-61" d="M 2194 1759 
Q 1497 1759 1228 1600 
Q 959 1441 959 1056 
Q 959 750 1161 570 
Q 1363 391 1709 391 
Q 2188 391 2477 730 
Q 2766 1069 2766 1631 
L 2766 1759 
L 2194 1759 
z
M 3341 1997 
L 3341 0 
L 2766 0 
L 2766 531 
Q 2569 213 2275 61 
Q 1981 -91 1556 -91 
Q 1019 -91 701 211 
Q 384 513 384 1019 
Q 384 1609 779 1909 
Q 1175 2209 1959 2209 
L 2766 2209 
L 2766 2266 
Q 2766 2663 2505 2880 
Q 2244 3097 1772 3097 
Q 1472 3097 1187 3025 
Q 903 2953 641 2809 
L 641 3341 
Q 956 3463 1253 3523 
Q 1550 3584 1831 3584 
Q 2591 3584 2966 3190 
Q 3341 2797 3341 1997 
z
" transform="scale(0.015625)"/>
       <path id="DejaVuSans-79" d="M 2059 -325 
Q 1816 -950 1584 -1140 
Q 1353 -1331 966 -1331 
L 506 -1331 
L 506 -850 
L 844 -850 
Q 1081 -850 1212 -737 
Q 1344 -625 1503 -206 
L 1606 56 
L 191 3500 
L 800 3500 
L 1894 763 
L 2988 3500 
L 3597 3500 
L 2059 -325 
z
" transform="scale(0.015625)"/>
      </defs>
      <use xlink:href="#DejaVuSans-41"/>
      <use xlink:href="#DejaVuSans-63" x="66.658203"/>
      <use xlink:href="#DejaVuSans-63" x="121.638672"/>
      <use xlink:href="#DejaVuSans-75" x="176.619141"/>
      <use xlink:href="#DejaVuSans-72" x="239.998047"/>
      <use xlink:href="#DejaVuSans-61" x="281.111328"/>
      <use xlink:href="#DejaVuSans-63" x="342.390625"/>
      <use xlink:href="#DejaVuSans-79" x="397.371094"/>
     </g>
    </g>
   </g>
   <g id="line2d_13">
    <path d="M 107.799773 337.830909 
L 110.708818 184.295661 
L 113.617863 162.093477 
L 116.526908 140.831314 
L 119.435953 122.411552 
L 122.344998 109.766172 
L 125.254043 100.61225 
L 128.163088 96.896956 
L 131.072133 93.025011 
L 133.981178 89.802122 
L 136.890223 89.712599 
L 139.799268 87.541593 
L 142.708313 86.288269 
L 145.617358 85.527294 
L 148.526403 85.303515 
L 151.435448 83.893484 
L 154.344493 83.065381 
L 157.253538 83.80396 
L 160.162583 83.445868 
L 163.071628 82.796811 
L 165.980673 82.170093 
L 168.889718 82.035837 
L 171.798763 81.901524 
L 174.707808 81.498698 
L 177.616853 82.013442 
L 180.525898 81.364385 
L 183.434943 81.565826 
L 186.343988 81.834395 
L 189.253033 81.565826 
L 192.162078 80.737723 
L 195.071123 80.60341 
L 197.980168 81.095816 
L 200.889213 80.558677 
L 203.798258 80.200585 
L 206.707303 80.715328 
L 209.616348 80.222979 
L 212.525393 81.140605 
L 215.434438 80.267713 
L 218.343483 80.222979 
L 221.252528 79.573923 
L 224.161573 79.90962 
L 227.070618 79.618656 
L 229.979663 79.551528 
L 232.888708 79.976748 
L 235.797753 80.200585 
L 238.706798 79.596261 
L 241.615843 80.088666 
L 244.524888 80.088666 
L 247.433933 80.066272 
L 250.342978 79.551528 
L 253.252022 78.745763 
L 256.161067 79.238169 
L 259.070112 79.641051 
L 261.979157 79.641051 
L 264.888202 79.126251 
L 267.797247 79.462005 
L 270.706292 79.193435 
L 273.615337 79.17104 
L 276.524382 78.857681 
L 279.433427 79.036727 
L 282.342472 78.566717 
L 285.251517 78.902471 
L 288.160562 78.991994 
L 291.069607 78.499589 
L 293.978652 78.857681 
L 296.887697 78.768158 
L 299.796742 78.857681 
L 302.705787 79.215774 
L 305.614832 78.812948 
L 308.523877 78.812948 
L 311.432922 78.947204 
L 314.341967 78.186286 
L 317.251012 79.036727 
L 320.160057 78.70103 
L 323.069102 78.544379 
L 325.978147 78.208625 
L 328.887192 78.611507 
L 331.796237 78.857681 
L 334.705282 78.611507 
L 337.614327 78.991994 
L 340.523372 78.342938 
L 343.432417 78.745763 
L 346.341462 78.208625 
L 349.250507 78.633902 
L 352.159552 78.566717 
L 355.068597 78.074368 
L 357.977642 78.790553 
L 360.886687 78.029578 
L 363.795732 78.007183 
L 366.704777 78.275809 
L 369.613822 77.96245 
L 372.522867 77.649091 
L 375.431912 77.984845 
L 378.340957 78.119101 
L 381.250002 77.940055 
L 384.159047 78.566717 
L 387.068092 77.872927 
L 389.977137 78.499589 
L 392.886182 78.051973 
L 395.795227 77.850532 
" clip-path="url(#p363377e25f)" style="fill: none; stroke: #1f77b4; stroke-width: 1.5; stroke-linecap: square"/>
   </g>
   <g id="line2d_14">
    <path d="M 107.799773 188.786841 
L 110.708818 181.811353 
L 113.617863 182.065011 
L 116.526908 180.035802 
L 119.435953 185.869828 
L 122.344998 181.177207 
L 125.254043 188.279525 
L 128.163088 186.250315 
L 131.072133 184.474708 
L 133.981178 185.61617 
L 136.890223 186.250315 
L 139.799268 185.362511 
L 142.708313 185.235682 
L 145.617358 183.840619 
L 148.526403 185.362511 
L 151.435448 184.474708 
L 154.344493 187.645379 
L 157.253538 185.869828 
L 160.162583 185.235682 
L 163.071628 185.869828 
L 165.980673 183.460131 
L 168.889718 184.221049 
L 171.798763 183.079644 
L 174.707808 183.71379 
L 177.616853 187.138119 
L 180.525898 186.757632 
L 183.434943 187.51855 
L 186.343988 188.279525 
L 189.253033 185.742999 
L 192.162078 187.645379 
L 195.071123 185.235682 
L 197.980168 186.630803 
L 200.889213 184.094277 
L 203.798258 186.757632 
L 206.707303 186.884461 
L 209.616348 184.855195 
L 212.525393 184.094277 
L 215.434438 184.601537 
L 218.343483 187.899037 
L 221.252528 187.645379 
L 224.161573 187.391778 
L 227.070618 185.108853 
L 229.979663 187.899037 
L 232.888708 186.884461 
L 235.797753 187.645379 
L 238.706798 189.928303 
L 241.615843 185.362511 
L 244.524888 185.235682 
L 247.433933 185.61617 
L 250.342978 186.377145 
L 253.252022 182.445498 
L 256.161067 186.503974 
L 259.070112 186.757632 
L 261.979157 188.279525 
L 264.888202 187.138119 
L 267.797247 185.362511 
L 270.706292 183.333302 
L 273.615337 183.840619 
L 276.524382 183.58696 
L 279.433427 182.825986 
L 282.342472 183.840619 
L 285.251517 185.61617 
L 288.160562 182.19184 
L 291.069607 182.572327 
L 293.978652 184.474708 
L 296.887697 182.19184 
L 299.796742 182.19184 
L 302.705787 180.543118 
L 305.614832 179.021169 
L 308.523877 183.079644 
L 311.432922 179.655314 
L 314.341967 182.572327 
L 317.251012 183.333302 
L 320.160057 182.825986 
L 323.069102 185.61617 
L 325.978147 187.391778 
L 328.887192 183.71379 
L 331.796237 184.474708 
L 334.705282 183.460131 
L 337.614327 184.347878 
L 340.523372 181.938182 
L 343.432417 184.474708 
L 346.341462 188.279525 
L 349.250507 184.601537 
L 352.159552 182.825986 
L 355.068597 184.094277 
L 357.977642 183.460131 
L 360.886687 182.572327 
L 363.795732 185.61617 
L 366.704777 186.377145 
L 369.613822 184.982024 
L 372.522867 184.347878 
L 375.431912 184.728366 
L 378.340957 185.235682 
L 381.250002 184.094277 
L 384.159047 183.840619 
L 387.068092 180.669947 
L 389.977137 183.079644 
L 392.886182 185.108853 
L 395.795227 182.19184 
" clip-path="url(#p363377e25f)" style="fill: none; stroke: #ff7f0e; stroke-width: 1.5; stroke-linecap: square"/>
   </g>
   <g id="patch_3">
    <path d="M 93.4 350.84 
L 93.4 64.64 
" style="fill: none; stroke: #000000; stroke-width: 0.8; stroke-linejoin: miter; stroke-linecap: square"/>
   </g>
   <g id="patch_4">
    <path d="M 410.195 350.84 
L 410.195 64.64 
" style="fill: none; stroke: #000000; stroke-width: 0.8; stroke-linejoin: miter; stroke-linecap: square"/>
   </g>
   <g id="patch_5">
    <path d="M 93.4 350.84 
L 410.195 350.84 
" style="fill: none; stroke: #000000; stroke-width: 0.8; stroke-linejoin: miter; stroke-linecap: square"/>
   </g>
   <g id="patch_6">
    <path d="M 93.4 64.64 
L 410.195 64.64 
" style="fill: none; stroke: #000000; stroke-width: 0.8; stroke-linejoin: miter; stroke-linecap: square"/>
   </g>
   <g id="text_15">
    <!-- MLP Accuracy -->
    <g transform="translate(210.359063 58.64)scale(0.12 -0.12)">
     <defs>
      <path id="DejaVuSans-4d" d="M 628 4666 
L 1569 4666 
L 2759 1491 
L 3956 4666 
L 4897 4666 
L 4897 0 
L 4281 0 
L 4281 4097 
L 3078 897 
L 2444 897 
L 1241 4097 
L 1241 0 
L 628 0 
L 628 4666 
z
" transform="scale(0.015625)"/>
      <path id="DejaVuSans-4c" d="M 628 4666 
L 1259 4666 
L 1259 531 
L 3531 531 
L 3531 0 
L 628 0 
L 628 4666 
z
" transform="scale(0.015625)"/>
      <path id="DejaVuSans-50" d="M 1259 4147 
L 1259 2394 
L 2053 2394 
Q 2494 2394 2734 2622 
Q 2975 2850 2975 3272 
Q 2975 3691 2734 3919 
Q 2494 4147 2053 4147 
L 1259 4147 
z
M 628 4666 
L 2053 4666 
Q 2838 4666 3239 4311 
Q 3641 3956 3641 3272 
Q 3641 2581 3239 2228 
Q 2838 1875 2053 1875 
L 1259 1875 
L 1259 0 
L 628 0 
L 628 4666 
z
" transform="scale(0.015625)"/>
      <path id="DejaVuSans-20" transform="scale(0.015625)"/>
     </defs>
     <use xlink:href="#DejaVuSans-4d"/>
     <use xlink:href="#DejaVuSans-4c" x="86.279297"/>
     <use xlink:href="#DejaVuSans-50" x="141.992188"/>
     <use xlink:href="#DejaVuSans-20" x="202.294922"/>
     <use xlink:href="#DejaVuSans-41" x="234.082031"/>
     <use xlink:href="#DejaVuSans-63" x="300.740234"/>
     <use xlink:href="#DejaVuSans-63" x="355.720703"/>
     <use xlink:href="#DejaVuSans-75" x="410.701172"/>
     <use xlink:href="#DejaVuSans-72" x="474.080078"/>
     <use xlink:href="#DejaVuSans-61" x="515.193359"/>
     <use xlink:href="#DejaVuSans-63" x="576.472656"/>
     <use xlink:href="#DejaVuSans-79" x="631.453125"/>
    </g>
   </g>
   <g id="legend_1">
    <g id="patch_7">
     <path d="M 100.4 101.99625 
L 207.3375 101.99625 
Q 209.3375 101.99625 209.3375 99.99625 
L 209.3375 71.64 
Q 209.3375 69.64 207.3375 69.64 
L 100.4 69.64 
Q 98.4 69.64 98.4 71.64 
L 98.4 99.99625 
Q 98.4 101.99625 100.4 101.99625 
z
" style="fill: #ffffff; opacity: 0.8; stroke: #cccccc; stroke-linejoin: miter"/>
    </g>
    <g id="line2d_15">
     <path d="M 102.4 77.738438 
L 112.4 77.738438 
L 122.4 77.738438 
" style="fill: none; stroke: #1f77b4; stroke-width: 1.5; stroke-linecap: square"/>
    </g>
    <g id="text_16">
     <!-- training data -->
     <g transform="translate(130.4 81.238438)scale(0.1 -0.1)">
      <defs>
       <path id="DejaVuSans-74" d="M 1172 4494 
L 1172 3500 
L 2356 3500 
L 2356 3053 
L 1172 3053 
L 1172 1153 
Q 1172 725 1289 603 
Q 1406 481 1766 481 
L 2356 481 
L 2356 0 
L 1766 0 
Q 1100 0 847 248 
Q 594 497 594 1153 
L 594 3053 
L 172 3053 
L 172 3500 
L 594 3500 
L 594 4494 
L 1172 4494 
z
" transform="scale(0.015625)"/>
       <path id="DejaVuSans-69" d="M 603 3500 
L 1178 3500 
L 1178 0 
L 603 0 
L 603 3500 
z
M 603 4863 
L 1178 4863 
L 1178 4134 
L 603 4134 
L 603 4863 
z
" transform="scale(0.015625)"/>
       <path id="DejaVuSans-6e" d="M 3513 2113 
L 3513 0 
L 2938 0 
L 2938 2094 
Q 2938 2591 2744 2837 
Q 2550 3084 2163 3084 
Q 1697 3084 1428 2787 
Q 1159 2491 1159 1978 
L 1159 0 
L 581 0 
L 581 3500 
L 1159 3500 
L 1159 2956 
Q 1366 3272 1645 3428 
Q 1925 3584 2291 3584 
Q 2894 3584 3203 3211 
Q 3513 2838 3513 2113 
z
" transform="scale(0.015625)"/>
       <path id="DejaVuSans-67" d="M 2906 1791 
Q 2906 2416 2648 2759 
Q 2391 3103 1925 3103 
Q 1463 3103 1205 2759 
Q 947 2416 947 1791 
Q 947 1169 1205 825 
Q 1463 481 1925 481 
Q 2391 481 2648 825 
Q 2906 1169 2906 1791 
z
M 3481 434 
Q 3481 -459 3084 -895 
Q 2688 -1331 1869 -1331 
Q 1566 -1331 1297 -1286 
Q 1028 -1241 775 -1147 
L 775 -588 
Q 1028 -725 1275 -790 
Q 1522 -856 1778 -856 
Q 2344 -856 2625 -561 
Q 2906 -266 2906 331 
L 2906 616 
Q 2728 306 2450 153 
Q 2172 0 1784 0 
Q 1141 0 747 490 
Q 353 981 353 1791 
Q 353 2603 747 3093 
Q 1141 3584 1784 3584 
Q 2172 3584 2450 3431 
Q 2728 3278 2906 2969 
L 2906 3500 
L 3481 3500 
L 3481 434 
z
" transform="scale(0.015625)"/>
       <path id="DejaVuSans-64" d="M 2906 2969 
L 2906 4863 
L 3481 4863 
L 3481 0 
L 2906 0 
L 2906 525 
Q 2725 213 2448 61 
Q 2172 -91 1784 -91 
Q 1150 -91 751 415 
Q 353 922 353 1747 
Q 353 2572 751 3078 
Q 1150 3584 1784 3584 
Q 2172 3584 2448 3432 
Q 2725 3281 2906 2969 
z
M 947 1747 
Q 947 1113 1208 752 
Q 1469 391 1925 391 
Q 2381 391 2643 752 
Q 2906 1113 2906 1747 
Q 2906 2381 2643 2742 
Q 2381 3103 1925 3103 
Q 1469 3103 1208 2742 
Q 947 2381 947 1747 
z
" transform="scale(0.015625)"/>
      </defs>
      <use xlink:href="#DejaVuSans-74"/>
      <use xlink:href="#DejaVuSans-72" x="39.208984"/>
      <use xlink:href="#DejaVuSans-61" x="80.322266"/>
      <use xlink:href="#DejaVuSans-69" x="141.601562"/>
      <use xlink:href="#DejaVuSans-6e" x="169.384766"/>
      <use xlink:href="#DejaVuSans-69" x="232.763672"/>
      <use xlink:href="#DejaVuSans-6e" x="260.546875"/>
      <use xlink:href="#DejaVuSans-67" x="323.925781"/>
      <use xlink:href="#DejaVuSans-20" x="387.402344"/>
      <use xlink:href="#DejaVuSans-64" x="419.189453"/>
      <use xlink:href="#DejaVuSans-61" x="482.666016"/>
      <use xlink:href="#DejaVuSans-74" x="543.945312"/>
      <use xlink:href="#DejaVuSans-61" x="583.154297"/>
     </g>
    </g>
    <g id="line2d_16">
     <path d="M 102.4 92.416563 
L 112.4 92.416563 
L 122.4 92.416563 
" style="fill: none; stroke: #ff7f0e; stroke-width: 1.5; stroke-linecap: square"/>
    </g>
    <g id="text_17">
     <!-- validation data -->
     <g transform="translate(130.4 95.916563)scale(0.1 -0.1)">
      <defs>
       <path id="DejaVuSans-76" d="M 191 3500 
L 800 3500 
L 1894 563 
L 2988 3500 
L 3597 3500 
L 2284 0 
L 1503 0 
L 191 3500 
z
" transform="scale(0.015625)"/>
       <path id="DejaVuSans-6c" d="M 603 4863 
L 1178 4863 
L 1178 0 
L 603 0 
L 603 4863 
z
" transform="scale(0.015625)"/>
      </defs>
      <use xlink:href="#DejaVuSans-76"/>
      <use xlink:href="#DejaVuSans-61" x="59.179688"/>
      <use xlink:href="#DejaVuSans-6c" x="120.458984"/>
      <use xlink:href="#DejaVuSans-69" x="148.242188"/>
      <use xlink:href="#DejaVuSans-64" x="176.025391"/>
      <use xlink:href="#DejaVuSans-61" x="239.501953"/>
      <use xlink:href="#DejaVuSans-74" x="300.78125"/>
      <use xlink:href="#DejaVuSans-69" x="339.990234"/>
      <use xlink:href="#DejaVuSans-6f" x="367.773438"/>
      <use xlink:href="#DejaVuSans-6e" x="428.955078"/>
      <use xlink:href="#DejaVuSans-20" x="492.333984"/>
      <use xlink:href="#DejaVuSans-64" x="524.121094"/>
      <use xlink:href="#DejaVuSans-61" x="587.597656"/>
      <use xlink:href="#DejaVuSans-74" x="648.876953"/>
      <use xlink:href="#DejaVuSans-61" x="688.085938"/>
     </g>
    </g>
   </g>
  </g>
  <g id="axes_2">
   <g id="patch_8">
    <path d="M 497.205 350.84 
L 814 350.84 
L 814 64.64 
L 497.205 64.64 
z
" style="fill: #ffffff"/>
   </g>
   <g id="matplotlib.axis_3">
    <g id="xtick_7">
     <g id="line2d_17">
      <g>
       <use xlink:href="#m6a8ed4c504" x="511.604773" y="350.84" style="stroke: #000000; stroke-width: 0.8"/>
      </g>
     </g>
     <g id="text_18">
      <!-- 0 -->
      <g transform="translate(508.423523 365.438438)scale(0.1 -0.1)">
       <use xlink:href="#DejaVuSans-30"/>
      </g>
     </g>
    </g>
    <g id="xtick_8">
     <g id="line2d_18">
      <g>
       <use xlink:href="#m6a8ed4c504" x="569.785673" y="350.84" style="stroke: #000000; stroke-width: 0.8"/>
      </g>
     </g>
     <g id="text_19">
      <!-- 20 -->
      <g transform="translate(563.423173 365.438438)scale(0.1 -0.1)">
       <use xlink:href="#DejaVuSans-32"/>
       <use xlink:href="#DejaVuSans-30" x="63.623047"/>
      </g>
     </g>
    </g>
    <g id="xtick_9">
     <g id="line2d_19">
      <g>
       <use xlink:href="#m6a8ed4c504" x="627.966573" y="350.84" style="stroke: #000000; stroke-width: 0.8"/>
      </g>
     </g>
     <g id="text_20">
      <!-- 40 -->
      <g transform="translate(621.604073 365.438438)scale(0.1 -0.1)">
       <use xlink:href="#DejaVuSans-34"/>
       <use xlink:href="#DejaVuSans-30" x="63.623047"/>
      </g>
     </g>
    </g>
    <g id="xtick_10">
     <g id="line2d_20">
      <g>
       <use xlink:href="#m6a8ed4c504" x="686.147472" y="350.84" style="stroke: #000000; stroke-width: 0.8"/>
      </g>
     </g>
     <g id="text_21">
      <!-- 60 -->
      <g transform="translate(679.784972 365.438438)scale(0.1 -0.1)">
       <use xlink:href="#DejaVuSans-36"/>
       <use xlink:href="#DejaVuSans-30" x="63.623047"/>
      </g>
     </g>
    </g>
    <g id="xtick_11">
     <g id="line2d_21">
      <g>
       <use xlink:href="#m6a8ed4c504" x="744.328372" y="350.84" style="stroke: #000000; stroke-width: 0.8"/>
      </g>
     </g>
     <g id="text_22">
      <!-- 80 -->
      <g transform="translate(737.965872 365.438438)scale(0.1 -0.1)">
       <use xlink:href="#DejaVuSans-38"/>
       <use xlink:href="#DejaVuSans-30" x="63.623047"/>
      </g>
     </g>
    </g>
    <g id="xtick_12">
     <g id="line2d_22">
      <g>
       <use xlink:href="#m6a8ed4c504" x="802.509272" y="350.84" style="stroke: #000000; stroke-width: 0.8"/>
      </g>
     </g>
     <g id="text_23">
      <!-- 100 -->
      <g transform="translate(792.965522 365.438438)scale(0.1 -0.1)">
       <use xlink:href="#DejaVuSans-31"/>
       <use xlink:href="#DejaVuSans-30" x="63.623047"/>
       <use xlink:href="#DejaVuSans-30" x="127.246094"/>
      </g>
     </g>
    </g>
    <g id="text_24">
     <!-- Epochs -->
     <g transform="translate(637.686875 379.116562)scale(0.1 -0.1)">
      <use xlink:href="#DejaVuSans-45"/>
      <use xlink:href="#DejaVuSans-70" x="63.183594"/>
      <use xlink:href="#DejaVuSans-6f" x="126.660156"/>
      <use xlink:href="#DejaVuSans-63" x="187.841797"/>
      <use xlink:href="#DejaVuSans-68" x="242.822266"/>
      <use xlink:href="#DejaVuSans-73" x="306.201172"/>
     </g>
    </g>
   </g>
   <g id="matplotlib.axis_4">
    <g id="ytick_7">
     <g id="line2d_23">
      <g>
       <use xlink:href="#m7493730f40" x="497.205" y="340.072174" style="stroke: #000000; stroke-width: 0.8"/>
      </g>
     </g>
     <g id="text_25">
      <!-- 0.0 -->
      <g transform="translate(474.301875 343.871393)scale(0.1 -0.1)">
       <use xlink:href="#DejaVuSans-30"/>
       <use xlink:href="#DejaVuSans-2e" x="63.623047"/>
       <use xlink:href="#DejaVuSans-30" x="95.410156"/>
      </g>
     </g>
    </g>
    <g id="ytick_8">
     <g id="line2d_24">
      <g>
       <use xlink:href="#m7493730f40" x="497.205" y="282.757044" style="stroke: #000000; stroke-width: 0.8"/>
      </g>
     </g>
     <g id="text_26">
      <!-- 0.2 -->
      <g transform="translate(474.301875 286.556263)scale(0.1 -0.1)">
       <use xlink:href="#DejaVuSans-30"/>
       <use xlink:href="#DejaVuSans-2e" x="63.623047"/>
       <use xlink:href="#DejaVuSans-32" x="95.410156"/>
      </g>
     </g>
    </g>
    <g id="ytick_9">
     <g id="line2d_25">
      <g>
       <use xlink:href="#m7493730f40" x="497.205" y="225.441915" style="stroke: #000000; stroke-width: 0.8"/>
      </g>
     </g>
     <g id="text_27">
      <!-- 0.4 -->
      <g transform="translate(474.301875 229.241133)scale(0.1 -0.1)">
       <use xlink:href="#DejaVuSans-30"/>
       <use xlink:href="#DejaVuSans-2e" x="63.623047"/>
       <use xlink:href="#DejaVuSans-34" x="95.410156"/>
      </g>
     </g>
    </g>
    <g id="ytick_10">
     <g id="line2d_26">
      <g>
       <use xlink:href="#m7493730f40" x="497.205" y="168.126785" style="stroke: #000000; stroke-width: 0.8"/>
      </g>
     </g>
     <g id="text_28">
      <!-- 0.6 -->
      <g transform="translate(474.301875 171.926004)scale(0.1 -0.1)">
       <use xlink:href="#DejaVuSans-30"/>
       <use xlink:href="#DejaVuSans-2e" x="63.623047"/>
       <use xlink:href="#DejaVuSans-36" x="95.410156"/>
      </g>
     </g>
    </g>
    <g id="ytick_11">
     <g id="line2d_27">
      <g>
       <use xlink:href="#m7493730f40" x="497.205" y="110.811655" style="stroke: #000000; stroke-width: 0.8"/>
      </g>
     </g>
     <g id="text_29">
      <!-- 0.8 -->
      <g transform="translate(474.301875 114.610874)scale(0.1 -0.1)">
       <use xlink:href="#DejaVuSans-30"/>
       <use xlink:href="#DejaVuSans-2e" x="63.623047"/>
       <use xlink:href="#DejaVuSans-38" x="95.410156"/>
      </g>
     </g>
    </g>
    <g id="text_30">
     <!-- Loss -->
     <g transform="translate(468.222188 218.707188)rotate(-90)scale(0.1 -0.1)">
      <use xlink:href="#DejaVuSans-4c"/>
      <use xlink:href="#DejaVuSans-6f" x="53.962891"/>
      <use xlink:href="#DejaVuSans-73" x="115.144531"/>
      <use xlink:href="#DejaVuSans-73" x="167.244141"/>
     </g>
    </g>
   </g>
   <g id="line2d_28">
    <path d="M 511.604773 190.541549 
L 514.513818 255.767604 
L 517.422863 269.790111 
L 520.331908 284.890665 
L 523.240953 297.442507 
L 526.149998 309.049376 
L 529.059043 315.924993 
L 531.968088 320.895493 
L 534.877133 323.84596 
L 537.786178 326.029118 
L 540.695223 327.28154 
L 543.604268 328.958627 
L 546.513313 329.571468 
L 549.422358 330.231053 
L 552.331403 330.958181 
L 555.240448 331.63704 
L 558.149493 332.414081 
L 561.058538 331.933408 
L 563.967583 332.695185 
L 566.876628 332.904574 
L 569.785673 333.329366 
L 572.694718 333.369659 
L 575.603763 333.347268 
L 578.512808 334.27084 
L 581.421853 333.666059 
L 584.330898 334.255228 
L 587.239943 334.062849 
L 590.148988 334.103418 
L 593.058033 334.216895 
L 595.967078 335.018296 
L 598.876123 334.957038 
L 601.785168 334.484843 
L 604.694213 335.00297 
L 607.603258 335.040895 
L 610.512303 335.405123 
L 613.421348 335.368229 
L 616.330393 334.799613 
L 619.239438 335.548609 
L 622.148483 335.800927 
L 625.057528 335.389419 
L 627.966573 335.742189 
L 630.875618 335.495504 
L 633.784663 335.569865 
L 636.693708 335.21317 
L 639.602753 335.336594 
L 642.511798 335.898908 
L 645.420843 335.485416 
L 648.329888 335.446673 
L 651.238933 335.832422 
L 654.147978 335.782126 
L 657.057022 336.621173 
L 659.966067 336.002294 
L 662.875112 335.566103 
L 665.784157 335.717908 
L 668.693202 336.218179 
L 671.602247 336.211445 
L 674.511292 335.885916 
L 677.420337 336.355531 
L 680.329382 336.094282 
L 683.238427 336.349437 
L 686.147472 336.589959 
L 689.056517 336.698246 
L 691.965562 336.272569 
L 694.874607 336.401243 
L 697.783652 336.576272 
L 700.692697 336.716128 
L 703.601742 336.258747 
L 706.510787 336.442207 
L 709.419832 336.84616 
L 712.328877 336.624991 
L 715.237922 336.442376 
L 718.146967 337.066161 
L 721.056012 336.424828 
L 723.965057 336.859451 
L 726.874102 337.070619 
L 729.783147 337.427887 
L 732.692192 336.982987 
L 735.601237 336.664754 
L 738.510282 336.853009 
L 741.419327 336.497414 
L 744.328372 336.866105 
L 747.237417 336.817016 
L 750.146462 336.981625 
L 753.055507 337.014854 
L 755.964552 336.944801 
L 758.873597 337.268779 
L 761.782642 336.761486 
L 764.691687 337.232896 
L 767.600732 337.064159 
L 770.509777 336.986699 
L 773.418822 337.644988 
L 776.327867 337.830909 
L 779.236912 337.271568 
L 782.145957 337.309152 
L 785.055002 337.442756 
L 787.964047 337.058068 
L 790.873092 337.363921 
L 793.782137 336.80841 
L 796.691182 337.013015 
L 799.600227 337.441798 
" clip-path="url(#p6771b7a05a)" style="fill: none; stroke: #1f77b4; stroke-width: 1.5; stroke-linecap: square"/>
   </g>
   <g id="line2d_29">
    <path d="M 511.604773 257.842104 
L 514.513818 262.839887 
L 517.422863 261.852412 
L 520.331908 259.273435 
L 523.240953 248.804975 
L 526.149998 241.868113 
L 529.059043 229.276634 
L 531.968088 217.502527 
L 534.877133 203.486823 
L 537.786178 201.877992 
L 540.695223 204.602724 
L 543.604268 197.512489 
L 546.513313 188.04581 
L 549.422358 185.032764 
L 552.331403 180.246908 
L 555.240448 183.839503 
L 558.149493 164.995684 
L 561.058538 171.21206 
L 563.967583 163.326454 
L 566.876628 164.744932 
L 569.785673 160.063032 
L 572.694718 151.082997 
L 575.603763 165.103621 
L 578.512808 150.191305 
L 581.421853 154.974514 
L 584.330898 152.194371 
L 587.239943 149.578123 
L 590.148988 146.963942 
L 593.058033 149.65545 
L 595.967078 136.576157 
L 598.876123 145.349372 
L 601.785168 137.796372 
L 604.694213 131.402847 
L 607.603258 139.007569 
L 610.512303 130.168864 
L 613.421348 123.332867 
L 616.330393 129.136064 
L 619.239438 123.370052 
L 622.148483 110.713315 
L 625.057528 133.487066 
L 627.966573 133.732284 
L 630.875618 120.140263 
L 633.784663 132.007813 
L 636.693708 140.037465 
L 639.602753 146.691616 
L 642.511798 121.176958 
L 645.420843 133.67016 
L 648.329888 137.52367 
L 651.238933 112.40171 
L 654.147978 109.687279 
L 657.057022 106.180022 
L 659.966067 102.511621 
L 662.875112 117.864239 
L 665.784157 120.82189 
L 668.693202 125.363348 
L 671.602247 119.622633 
L 674.511292 125.867296 
L 677.420337 127.175394 
L 680.329382 115.598088 
L 683.238427 124.163954 
L 686.147472 111.101093 
L 689.056517 95.833847 
L 691.965562 120.43734 
L 694.874607 130.521079 
L 697.783652 132.196903 
L 700.692697 114.948045 
L 703.601742 119.216356 
L 706.510787 116.750047 
L 709.419832 110.59542 
L 712.328877 106.059753 
L 715.237922 125.039983 
L 718.146967 96.836806 
L 721.056012 119.230841 
L 723.965057 92.574268 
L 726.874102 87.009405 
L 729.783147 94.793053 
L 732.692192 103.73047 
L 735.601237 126.408856 
L 738.510282 101.362344 
L 741.419327 105.683829 
L 744.328372 98.172098 
L 747.237417 108.589058 
L 750.146462 109.806489 
L 753.055507 101.933848 
L 755.964552 99.338405 
L 758.873597 110.198059 
L 761.782642 89.437521 
L 764.691687 103.42171 
L 767.600732 100.659793 
L 770.509777 112.045908 
L 773.418822 80.750087 
L 776.327867 79.402788 
L 779.236912 99.665818 
L 782.145957 89.147208 
L 785.055002 77.649091 
L 787.964047 98.23441 
L 790.873092 91.94836 
L 793.782137 123.15131 
L 796.691182 132.199482 
L 799.600227 95.523037 
" clip-path="url(#p6771b7a05a)" style="fill: none; stroke: #ff7f0e; stroke-width: 1.5; stroke-linecap: square"/>
   </g>
   <g id="patch_9">
    <path d="M 497.205 350.84 
L 497.205 64.64 
" style="fill: none; stroke: #000000; stroke-width: 0.8; stroke-linejoin: miter; stroke-linecap: square"/>
   </g>
   <g id="patch_10">
    <path d="M 814 350.84 
L 814 64.64 
" style="fill: none; stroke: #000000; stroke-width: 0.8; stroke-linejoin: miter; stroke-linecap: square"/>
   </g>
   <g id="patch_11">
    <path d="M 497.205 350.84 
L 814 350.84 
" style="fill: none; stroke: #000000; stroke-width: 0.8; stroke-linejoin: miter; stroke-linecap: square"/>
   </g>
   <g id="patch_12">
    <path d="M 497.205 64.64 
L 814 64.64 
" style="fill: none; stroke: #000000; stroke-width: 0.8; stroke-linejoin: miter; stroke-linecap: square"/>
   </g>
   <g id="text_31">
    <!-- MLP Loss -->
    <g transform="translate(628.397187 58.64)scale(0.12 -0.12)">
     <use xlink:href="#DejaVuSans-4d"/>
     <use xlink:href="#DejaVuSans-4c" x="86.279297"/>
     <use xlink:href="#DejaVuSans-50" x="141.992188"/>
     <use xlink:href="#DejaVuSans-20" x="202.294922"/>
     <use xlink:href="#DejaVuSans-4c" x="234.082031"/>
     <use xlink:href="#DejaVuSans-6f" x="288.044922"/>
     <use xlink:href="#DejaVuSans-73" x="349.226562"/>
     <use xlink:href="#DejaVuSans-73" x="401.326172"/>
    </g>
   </g>
   <g id="legend_2">
    <g id="patch_13">
     <path d="M 504.205 101.99625 
L 611.1425 101.99625 
Q 613.1425 101.99625 613.1425 99.99625 
L 613.1425 71.64 
Q 613.1425 69.64 611.1425 69.64 
L 504.205 69.64 
Q 502.205 69.64 502.205 71.64 
L 502.205 99.99625 
Q 502.205 101.99625 504.205 101.99625 
z
" style="fill: #ffffff; opacity: 0.8; stroke: #cccccc; stroke-linejoin: miter"/>
    </g>
    <g id="line2d_30">
     <path d="M 506.205 77.738438 
L 516.205 77.738438 
L 526.205 77.738438 
" style="fill: none; stroke: #1f77b4; stroke-width: 1.5; stroke-linecap: square"/>
    </g>
    <g id="text_32">
     <!-- training data -->
     <g transform="translate(534.205 81.238438)scale(0.1 -0.1)">
      <use xlink:href="#DejaVuSans-74"/>
      <use xlink:href="#DejaVuSans-72" x="39.208984"/>
      <use xlink:href="#DejaVuSans-61" x="80.322266"/>
      <use xlink:href="#DejaVuSans-69" x="141.601562"/>
      <use xlink:href="#DejaVuSans-6e" x="169.384766"/>
      <use xlink:href="#DejaVuSans-69" x="232.763672"/>
      <use xlink:href="#DejaVuSans-6e" x="260.546875"/>
      <use xlink:href="#DejaVuSans-67" x="323.925781"/>
      <use xlink:href="#DejaVuSans-20" x="387.402344"/>
      <use xlink:href="#DejaVuSans-64" x="419.189453"/>
      <use xlink:href="#DejaVuSans-61" x="482.666016"/>
      <use xlink:href="#DejaVuSans-74" x="543.945312"/>
      <use xlink:href="#DejaVuSans-61" x="583.154297"/>
     </g>
    </g>
    <g id="line2d_31">
     <path d="M 506.205 92.416563 
L 516.205 92.416563 
L 526.205 92.416563 
" style="fill: none; stroke: #ff7f0e; stroke-width: 1.5; stroke-linecap: square"/>
    </g>
    <g id="text_33">
     <!-- validation data -->
     <g transform="translate(534.205 95.916563)scale(0.1 -0.1)">
      <use xlink:href="#DejaVuSans-76"/>
      <use xlink:href="#DejaVuSans-61" x="59.179688"/>
      <use xlink:href="#DejaVuSans-6c" x="120.458984"/>
      <use xlink:href="#DejaVuSans-69" x="148.242188"/>
      <use xlink:href="#DejaVuSans-64" x="176.025391"/>
      <use xlink:href="#DejaVuSans-61" x="239.501953"/>
      <use xlink:href="#DejaVuSans-74" x="300.78125"/>
      <use xlink:href="#DejaVuSans-69" x="339.990234"/>
      <use xlink:href="#DejaVuSans-6f" x="367.773438"/>
      <use xlink:href="#DejaVuSans-6e" x="428.955078"/>
      <use xlink:href="#DejaVuSans-20" x="492.333984"/>
      <use xlink:href="#DejaVuSans-64" x="524.121094"/>
      <use xlink:href="#DejaVuSans-61" x="587.597656"/>
      <use xlink:href="#DejaVuSans-74" x="648.876953"/>
      <use xlink:href="#DejaVuSans-61" x="688.085938"/>
     </g>
    </g>
   </g>
  </g>
 </g>
 <defs>
  <clipPath id="p363377e25f">
   <rect x="93.4" y="64.64" width="316.795" height="286.2"/>
  </clipPath>
  <clipPath id="p6771b7a05a">
   <rect x="497.205" y="64.64" width="316.795" height="286.2"/>
  </clipPath>
 </defs>
</svg>
