<?xml version="1.0" encoding="utf-8" standalone="no"?>
<!DOCTYPE svg PUBLIC "-//W3C//DTD SVG 1.1//EN"
  "http://www.w3.org/Graphics/SVG/1.1/DTD/svg11.dtd">
<svg xmlns:xlink="http://www.w3.org/1999/xlink" width="864pt" height="288pt" viewBox="0 0 864 288" xmlns="http://www.w3.org/2000/svg" version="1.1">
 <metadata>
  <rdf:RDF xmlns:dc="http://purl.org/dc/elements/1.1/" xmlns:cc="http://creativecommons.org/ns#" xmlns:rdf="http://www.w3.org/1999/02/22-rdf-syntax-ns#">
   <cc:Work>
    <dc:type rdf:resource="http://purl.org/dc/dcmitype/StillImage"/>
    <dc:date>2022-07-10T21:49:26.689605</dc:date>
    <dc:format>image/svg+xml</dc:format>
    <dc:creator>
     <cc:Agent>
      <dc:title>Matplotlib v3.5.1, https://matplotlib.org/</dc:title>
     </cc:Agent>
    </dc:creator>
   </cc:Work>
  </rdf:RDF>
 </metadata>
 <defs>
  <style type="text/css">*{stroke-linejoin: round; stroke-linecap: butt}</style>
 </defs>
 <g id="figure_1">
  <g id="patch_1">
   <path d="M 0 288 
L 864 288 
L 864 0 
L 0 0 
z
" style="fill: #ffffff"/>
  </g>
  <g id="axes_1">
   <g id="patch_2">
    <path d="M 33.5 226.84 
L 417 226.84 
L 417 44.64 
L 33.5 44.64 
z
" style="fill: #ffffff"/>
   </g>
   <g id="PolyCollection_1">
    <defs>
     <path id="m32a75ae03c" d="M 50.931818 -61.165959 
L 50.931818 -61.16 
L 52.68376 -61.16 
L 54.435701 -61.16 
L 56.187643 -61.16 
L 57.939584 -61.16 
L 59.691526 -61.16 
L 61.443467 -61.16 
L 63.195409 -61.16 
L 64.94735 -61.16 
L 66.699292 -61.16 
L 68.451233 -61.16 
L 70.203175 -61.16 
L 71.955116 -61.16 
L 73.707058 -61.16 
L 75.459 -61.16 
L 77.210941 -61.16 
L 78.962883 -61.16 
L 80.714824 -61.16 
L 82.466766 -61.16 
L 84.218707 -61.16 
L 85.970649 -61.16 
L 87.72259 -61.16 
L 89.474532 -61.16 
L 91.226473 -61.16 
L 92.978415 -61.16 
L 94.730356 -61.16 
L 96.482298 -61.16 
L 98.234239 -61.16 
L 99.986181 -61.16 
L 101.738122 -61.16 
L 103.490064 -61.16 
L 105.242005 -61.16 
L 106.993947 -61.16 
L 108.745889 -61.16 
L 110.49783 -61.16 
L 112.249772 -61.16 
L 114.001713 -61.16 
L 115.753655 -61.16 
L 117.505596 -61.16 
L 119.257538 -61.16 
L 121.009479 -61.16 
L 122.761421 -61.16 
L 124.513362 -61.16 
L 126.265304 -61.16 
L 128.017245 -61.16 
L 129.769187 -61.16 
L 131.521128 -61.16 
L 133.27307 -61.16 
L 135.025011 -61.16 
L 136.776953 -61.16 
L 138.528894 -61.16 
L 140.280836 -61.16 
L 142.032778 -61.16 
L 143.784719 -61.16 
L 145.536661 -61.16 
L 147.288602 -61.16 
L 149.040544 -61.16 
L 150.792485 -61.16 
L 152.544427 -61.16 
L 154.296368 -61.16 
L 156.04831 -61.16 
L 157.800251 -61.16 
L 159.552193 -61.16 
L 161.304134 -61.16 
L 163.056076 -61.16 
L 164.808017 -61.16 
L 166.559959 -61.16 
L 168.3119 -61.16 
L 170.063842 -61.16 
L 171.815783 -61.16 
L 173.567725 -61.16 
L 175.319667 -61.16 
L 177.071608 -61.16 
L 178.82355 -61.16 
L 180.575491 -61.16 
L 182.327433 -61.16 
L 184.079374 -61.16 
L 185.831316 -61.16 
L 187.583257 -61.16 
L 189.335199 -61.16 
L 191.08714 -61.16 
L 192.839082 -61.16 
L 194.591023 -61.16 
L 196.342965 -61.16 
L 198.094906 -61.16 
L 199.846848 -61.16 
L 201.598789 -61.16 
L 203.350731 -61.16 
L 205.102672 -61.16 
L 206.854614 -61.16 
L 208.606556 -61.16 
L 210.358497 -61.16 
L 212.110439 -61.16 
L 213.86238 -61.16 
L 215.614322 -61.16 
L 217.366263 -61.16 
L 219.118205 -61.16 
L 220.870146 -61.16 
L 222.622088 -61.16 
L 224.374029 -61.16 
L 226.125971 -61.16 
L 227.877912 -61.16 
L 229.629854 -61.16 
L 231.381795 -61.16 
L 233.133737 -61.16 
L 234.885678 -61.16 
L 236.63762 -61.16 
L 238.389561 -61.16 
L 240.141503 -61.16 
L 241.893444 -61.16 
L 243.645386 -61.16 
L 245.397328 -61.16 
L 247.149269 -61.16 
L 248.901211 -61.16 
L 250.653152 -61.16 
L 252.405094 -61.16 
L 254.157035 -61.16 
L 255.908977 -61.16 
L 257.660918 -61.16 
L 259.41286 -61.16 
L 261.164801 -61.16 
L 262.916743 -61.16 
L 264.668684 -61.16 
L 266.420626 -61.16 
L 268.172567 -61.16 
L 269.924509 -61.16 
L 271.67645 -61.16 
L 273.428392 -61.16 
L 275.180333 -61.16 
L 276.932275 -61.16 
L 278.684217 -61.16 
L 280.436158 -61.16 
L 282.1881 -61.16 
L 283.940041 -61.16 
L 285.691983 -61.16 
L 287.443924 -61.16 
L 289.195866 -61.16 
L 290.947807 -61.16 
L 292.699749 -61.16 
L 294.45169 -61.16 
L 296.203632 -61.16 
L 297.955573 -61.16 
L 299.707515 -61.16 
L 301.459456 -61.16 
L 303.211398 -61.16 
L 304.963339 -61.16 
L 306.715281 -61.16 
L 308.467222 -61.16 
L 310.219164 -61.16 
L 311.971106 -61.16 
L 313.723047 -61.16 
L 315.474989 -61.16 
L 317.22693 -61.16 
L 318.978872 -61.16 
L 320.730813 -61.16 
L 322.482755 -61.16 
L 324.234696 -61.16 
L 325.986638 -61.16 
L 327.738579 -61.16 
L 329.490521 -61.16 
L 331.242462 -61.16 
L 332.994404 -61.16 
L 334.746345 -61.16 
L 336.498287 -61.16 
L 338.250228 -61.16 
L 340.00217 -61.16 
L 341.754111 -61.16 
L 343.506053 -61.16 
L 345.257995 -61.16 
L 347.009936 -61.16 
L 348.761878 -61.16 
L 350.513819 -61.16 
L 352.265761 -61.16 
L 354.017702 -61.16 
L 355.769644 -61.16 
L 357.521585 -61.16 
L 359.273527 -61.16 
L 361.025468 -61.16 
L 362.77741 -61.16 
L 364.529351 -61.16 
L 366.281293 -61.16 
L 368.033234 -61.16 
L 369.785176 -61.16 
L 371.537117 -61.16 
L 373.289059 -61.16 
L 375.041 -61.16 
L 376.792942 -61.16 
L 378.544884 -61.16 
L 380.296825 -61.16 
L 382.048767 -61.16 
L 383.800708 -61.16 
L 385.55265 -61.16 
L 387.304591 -61.16 
L 389.056533 -61.16 
L 390.808474 -61.16 
L 392.560416 -61.16 
L 394.312357 -61.16 
L 396.064299 -61.16 
L 397.81624 -61.16 
L 399.568182 -61.16 
L 399.568182 -61.160251 
L 399.568182 -61.160251 
L 397.81624 -61.161078 
L 396.064299 -61.163488 
L 394.312357 -61.168486 
L 392.560416 -61.175528 
L 390.808474 -61.181369 
L 389.056533 -61.182118 
L 387.304591 -61.17722 
L 385.55265 -61.170092 
L 383.800708 -61.16451 
L 382.048767 -61.161868 
L 380.296825 -61.162093 
L 378.544884 -61.165771 
L 376.792942 -61.174322 
L 375.041 -61.187337 
L 373.289059 -61.199756 
L 371.537117 -61.204047 
L 369.785176 -61.197181 
L 368.033234 -61.183907 
L 366.281293 -61.171705 
L 364.529351 -61.16437 
L 362.77741 -61.161313 
L 361.025468 -61.160677 
L 359.273527 -61.161659 
L 357.521585 -61.164779 
L 355.769644 -61.170608 
L 354.017702 -61.177727 
L 352.265761 -61.182282 
L 350.513819 -61.181066 
L 348.761878 -61.174979 
L 347.009936 -61.168011 
L 345.257995 -61.163222 
L 343.506053 -61.160975 
L 341.754111 -61.160222 
L 340.00217 -61.160038 
L 338.250228 -61.160005 
L 336.498287 -61.16 
L 334.746345 -61.16 
L 332.994404 -61.16 
L 331.242462 -61.16 
L 329.490521 -61.16 
L 327.738579 -61.16 
L 325.986638 -61.16 
L 324.234696 -61.160001 
L 322.482755 -61.160007 
L 320.730813 -61.160059 
L 318.978872 -61.16035 
L 317.22693 -61.161574 
L 315.474989 -61.165361 
L 313.723047 -61.17382 
L 311.971106 -61.186975 
L 310.219164 -61.199914 
L 308.467222 -61.204981 
L 306.715281 -61.199395 
L 304.963339 -61.189061 
L 303.211398 -61.182483 
L 301.459456 -61.182161 
L 299.707515 -61.183523 
L 297.955573 -61.181298 
L 296.203632 -61.1752 
L 294.45169 -61.169274 
L 292.699749 -61.167814 
L 290.947807 -61.173063 
L 289.195866 -61.184366 
L 287.443924 -61.196976 
L 285.691983 -61.203402 
L 283.940041 -61.199183 
L 282.1881 -61.187177 
L 280.436158 -61.174464 
L 278.684217 -61.165896 
L 276.932275 -61.161836 
L 275.180333 -61.160436 
L 273.428392 -61.160079 
L 271.67645 -61.160011 
L 269.924509 -61.160007 
L 268.172567 -61.160047 
L 266.420626 -61.160287 
L 264.668684 -61.161339 
L 262.916743 -61.164786 
L 261.164801 -61.173195 
L 259.41286 -61.188192 
L 257.660918 -61.206884 
L 255.908977 -61.220869 
L 254.157035 -61.221758 
L 252.405094 -61.208919 
L 250.653152 -61.190164 
L 248.901211 -61.174421 
L 247.149269 -61.165334 
L 245.397328 -61.161604 
L 243.645386 -61.160834 
L 241.893444 -61.162126 
L 240.141503 -61.166646 
L 238.389561 -61.177029 
L 236.63762 -61.19574 
L 234.885678 -61.222345 
L 233.133737 -61.250819 
L 231.381795 -61.27028 
L 229.629854 -61.272169 
L 227.877912 -61.258216 
L 226.125971 -61.238756 
L 224.374029 -61.223608 
L 222.622088 -61.217245 
L 220.870146 -61.220042 
L 219.118205 -61.230031 
L 217.366263 -61.245854 
L 215.614322 -61.271492 
L 213.86238 -61.315784 
L 212.110439 -61.38605 
L 210.358497 -61.487867 
L 208.606556 -61.634192 
L 206.854614 -61.84781 
L 205.102672 -62.14638 
L 203.350731 -62.518365 
L 201.598789 -62.904128 
L 199.846848 -63.207209 
L 198.094906 -63.357574 
L 196.342965 -63.379248 
L 194.591023 -63.37108 
L 192.839082 -63.410047 
L 191.08714 -63.493506 
L 189.335199 -63.572768 
L 187.583257 -63.610788 
L 185.831316 -63.601833 
L 184.079374 -63.566552 
L 182.327433 -63.549259 
L 180.575491 -63.60254 
L 178.82355 -63.745961 
L 177.071608 -63.941103 
L 175.319667 -64.126906 
L 173.567725 -64.278366 
L 171.815783 -64.417068 
L 170.063842 -64.574673 
L 168.3119 -64.764274 
L 166.559959 -64.981256 
L 164.808017 -65.217408 
L 163.056076 -65.466714 
L 161.304134 -65.71941 
L 159.552193 -65.9646 
L 157.800251 -66.202584 
L 156.04831 -66.447285 
L 154.296368 -66.720122 
L 152.544427 -67.037146 
L 150.792485 -67.394036 
L 149.040544 -67.781908 
L 147.288602 -68.2213 
L 145.536661 -68.749839 
L 143.784719 -69.370104 
L 142.032778 -70.0268 
L 140.280836 -70.641309 
L 138.528894 -71.179572 
L 136.776953 -71.689973 
L 135.025011 -72.25514 
L 133.27307 -72.90427 
L 131.521128 -73.590762 
L 129.769187 -74.256176 
L 128.017245 -74.901763 
L 126.265304 -75.591863 
L 124.513362 -76.401235 
L 122.761421 -77.373633 
L 121.009479 -78.512665 
L 119.257538 -79.778341 
L 117.505596 -81.099763 
L 115.753655 -82.426263 
L 114.001713 -83.784416 
L 112.249772 -85.303123 
L 110.49783 -87.165472 
L 108.745889 -89.46291 
L 106.993947 -92.085723 
L 105.242005 -94.817733 
L 103.490064 -97.553693 
L 101.738122 -100.394268 
L 99.986181 -103.528176 
L 98.234239 -107.082634 
L 96.482298 -111.158042 
L 94.730356 -115.967753 
L 92.978415 -121.828656 
L 91.226473 -129.00165 
L 89.474532 -137.618405 
L 87.72259 -147.802714 
L 85.970649 -159.86455 
L 84.218707 -174.357039 
L 82.466766 -191.7076 
L 80.714824 -210.954192 
L 78.962883 -227.820071 
L 77.210941 -234.68381 
L 75.459 -225.315835 
L 73.707058 -201.42165 
L 71.955116 -172.778344 
L 70.203175 -149.067781 
L 68.451233 -132.495777 
L 66.699292 -118.975474 
L 64.94735 -104.614941 
L 63.195409 -89.607962 
L 61.443467 -76.79274 
L 59.691526 -68.23554 
L 57.939584 -63.773828 
L 56.187643 -61.944836 
L 54.435701 -61.351084 
L 52.68376 -61.197615 
L 50.931818 -61.165959 
z
" style="stroke: #000080"/>
    </defs>
    <g clip-path="url(#pea803a994e)">
     <use xlink:href="#m32a75ae03c" x="0" y="288" style="fill: #000080; fill-opacity: 0.25; stroke: #000080"/>
    </g>
   </g>
   <g id="matplotlib.axis_1">
    <g id="xtick_1">
     <g id="line2d_1">
      <defs>
       <path id="m66bfaba1e4" d="M 0 0 
L 0 3.5 
" style="stroke: #000000; stroke-width: 0.8"/>
      </defs>
      <g>
       <use xlink:href="#m66bfaba1e4" x="59.211869" y="226.84" style="stroke: #000000; stroke-width: 0.8"/>
      </g>
     </g>
     <g id="text_1">
      <!-- 0 -->
      <g transform="translate(56.030619 241.438438)scale(0.1 -0.1)">
       <defs>
        <path id="DejaVuSans-30" d="M 2034 4250 
Q 1547 4250 1301 3770 
Q 1056 3291 1056 2328 
Q 1056 1369 1301 889 
Q 1547 409 2034 409 
Q 2525 409 2770 889 
Q 3016 1369 3016 2328 
Q 3016 3291 2770 3770 
Q 2525 4250 2034 4250 
z
M 2034 4750 
Q 2819 4750 3233 4129 
Q 3647 3509 3647 2328 
Q 3647 1150 3233 529 
Q 2819 -91 2034 -91 
Q 1250 -91 836 529 
Q 422 1150 422 2328 
Q 422 3509 836 4129 
Q 1250 4750 2034 4750 
z
" transform="scale(0.015625)"/>
       </defs>
       <use xlink:href="#DejaVuSans-30"/>
      </g>
     </g>
    </g>
    <g id="xtick_2">
     <g id="line2d_2">
      <g>
       <use xlink:href="#m66bfaba1e4" x="107.447219" y="226.84" style="stroke: #000000; stroke-width: 0.8"/>
      </g>
     </g>
     <g id="text_2">
      <!-- 2000 -->
      <g transform="translate(94.722219 241.438438)scale(0.1 -0.1)">
       <defs>
        <path id="DejaVuSans-32" d="M 1228 531 
L 3431 531 
L 3431 0 
L 469 0 
L 469 531 
Q 828 903 1448 1529 
Q 2069 2156 2228 2338 
Q 2531 2678 2651 2914 
Q 2772 3150 2772 3378 
Q 2772 3750 2511 3984 
Q 2250 4219 1831 4219 
Q 1534 4219 1204 4116 
Q 875 4013 500 3803 
L 500 4441 
Q 881 4594 1212 4672 
Q 1544 4750 1819 4750 
Q 2544 4750 2975 4387 
Q 3406 4025 3406 3419 
Q 3406 3131 3298 2873 
Q 3191 2616 2906 2266 
Q 2828 2175 2409 1742 
Q 1991 1309 1228 531 
z
" transform="scale(0.015625)"/>
       </defs>
       <use xlink:href="#DejaVuSans-32"/>
       <use xlink:href="#DejaVuSans-30" x="63.623047"/>
       <use xlink:href="#DejaVuSans-30" x="127.246094"/>
       <use xlink:href="#DejaVuSans-30" x="190.869141"/>
      </g>
     </g>
    </g>
    <g id="xtick_3">
     <g id="line2d_3">
      <g>
       <use xlink:href="#m66bfaba1e4" x="155.682568" y="226.84" style="stroke: #000000; stroke-width: 0.8"/>
      </g>
     </g>
     <g id="text_3">
      <!-- 4000 -->
      <g transform="translate(142.957568 241.438438)scale(0.1 -0.1)">
       <defs>
        <path id="DejaVuSans-34" d="M 2419 4116 
L 825 1625 
L 2419 1625 
L 2419 4116 
z
M 2253 4666 
L 3047 4666 
L 3047 1625 
L 3713 1625 
L 3713 1100 
L 3047 1100 
L 3047 0 
L 2419 0 
L 2419 1100 
L 313 1100 
L 313 1709 
L 2253 4666 
z
" transform="scale(0.015625)"/>
       </defs>
       <use xlink:href="#DejaVuSans-34"/>
       <use xlink:href="#DejaVuSans-30" x="63.623047"/>
       <use xlink:href="#DejaVuSans-30" x="127.246094"/>
       <use xlink:href="#DejaVuSans-30" x="190.869141"/>
      </g>
     </g>
    </g>
    <g id="xtick_4">
     <g id="line2d_4">
      <g>
       <use xlink:href="#m66bfaba1e4" x="203.917917" y="226.84" style="stroke: #000000; stroke-width: 0.8"/>
      </g>
     </g>
     <g id="text_4">
      <!-- 6000 -->
      <g transform="translate(191.192917 241.438438)scale(0.1 -0.1)">
       <defs>
        <path id="DejaVuSans-36" d="M 2113 2584 
Q 1688 2584 1439 2293 
Q 1191 2003 1191 1497 
Q 1191 994 1439 701 
Q 1688 409 2113 409 
Q 2538 409 2786 701 
Q 3034 994 3034 1497 
Q 3034 2003 2786 2293 
Q 2538 2584 2113 2584 
z
M 3366 4563 
L 3366 3988 
Q 3128 4100 2886 4159 
Q 2644 4219 2406 4219 
Q 1781 4219 1451 3797 
Q 1122 3375 1075 2522 
Q 1259 2794 1537 2939 
Q 1816 3084 2150 3084 
Q 2853 3084 3261 2657 
Q 3669 2231 3669 1497 
Q 3669 778 3244 343 
Q 2819 -91 2113 -91 
Q 1303 -91 875 529 
Q 447 1150 447 2328 
Q 447 3434 972 4092 
Q 1497 4750 2381 4750 
Q 2619 4750 2861 4703 
Q 3103 4656 3366 4563 
z
" transform="scale(0.015625)"/>
       </defs>
       <use xlink:href="#DejaVuSans-36"/>
       <use xlink:href="#DejaVuSans-30" x="63.623047"/>
       <use xlink:href="#DejaVuSans-30" x="127.246094"/>
       <use xlink:href="#DejaVuSans-30" x="190.869141"/>
      </g>
     </g>
    </g>
    <g id="xtick_5">
     <g id="line2d_5">
      <g>
       <use xlink:href="#m66bfaba1e4" x="252.153266" y="226.84" style="stroke: #000000; stroke-width: 0.8"/>
      </g>
     </g>
     <g id="text_5">
      <!-- 8000 -->
      <g transform="translate(239.428266 241.438438)scale(0.1 -0.1)">
       <defs>
        <path id="DejaVuSans-38" d="M 2034 2216 
Q 1584 2216 1326 1975 
Q 1069 1734 1069 1313 
Q 1069 891 1326 650 
Q 1584 409 2034 409 
Q 2484 409 2743 651 
Q 3003 894 3003 1313 
Q 3003 1734 2745 1975 
Q 2488 2216 2034 2216 
z
M 1403 2484 
Q 997 2584 770 2862 
Q 544 3141 544 3541 
Q 544 4100 942 4425 
Q 1341 4750 2034 4750 
Q 2731 4750 3128 4425 
Q 3525 4100 3525 3541 
Q 3525 3141 3298 2862 
Q 3072 2584 2669 2484 
Q 3125 2378 3379 2068 
Q 3634 1759 3634 1313 
Q 3634 634 3220 271 
Q 2806 -91 2034 -91 
Q 1263 -91 848 271 
Q 434 634 434 1313 
Q 434 1759 690 2068 
Q 947 2378 1403 2484 
z
M 1172 3481 
Q 1172 3119 1398 2916 
Q 1625 2713 2034 2713 
Q 2441 2713 2670 2916 
Q 2900 3119 2900 3481 
Q 2900 3844 2670 4047 
Q 2441 4250 2034 4250 
Q 1625 4250 1398 4047 
Q 1172 3844 1172 3481 
z
" transform="scale(0.015625)"/>
       </defs>
       <use xlink:href="#DejaVuSans-38"/>
       <use xlink:href="#DejaVuSans-30" x="63.623047"/>
       <use xlink:href="#DejaVuSans-30" x="127.246094"/>
       <use xlink:href="#DejaVuSans-30" x="190.869141"/>
      </g>
     </g>
    </g>
    <g id="xtick_6">
     <g id="line2d_6">
      <g>
       <use xlink:href="#m66bfaba1e4" x="300.388615" y="226.84" style="stroke: #000000; stroke-width: 0.8"/>
      </g>
     </g>
     <g id="text_6">
      <!-- 10000 -->
      <g transform="translate(284.482365 241.438438)scale(0.1 -0.1)">
       <defs>
        <path id="DejaVuSans-31" d="M 794 531 
L 1825 531 
L 1825 4091 
L 703 3866 
L 703 4441 
L 1819 4666 
L 2450 4666 
L 2450 531 
L 3481 531 
L 3481 0 
L 794 0 
L 794 531 
z
" transform="scale(0.015625)"/>
       </defs>
       <use xlink:href="#DejaVuSans-31"/>
       <use xlink:href="#DejaVuSans-30" x="63.623047"/>
       <use xlink:href="#DejaVuSans-30" x="127.246094"/>
       <use xlink:href="#DejaVuSans-30" x="190.869141"/>
       <use xlink:href="#DejaVuSans-30" x="254.492188"/>
      </g>
     </g>
    </g>
    <g id="xtick_7">
     <g id="line2d_7">
      <g>
       <use xlink:href="#m66bfaba1e4" x="348.623964" y="226.84" style="stroke: #000000; stroke-width: 0.8"/>
      </g>
     </g>
     <g id="text_7">
      <!-- 12000 -->
      <g transform="translate(332.717714 241.438438)scale(0.1 -0.1)">
       <use xlink:href="#DejaVuSans-31"/>
       <use xlink:href="#DejaVuSans-32" x="63.623047"/>
       <use xlink:href="#DejaVuSans-30" x="127.246094"/>
       <use xlink:href="#DejaVuSans-30" x="190.869141"/>
       <use xlink:href="#DejaVuSans-30" x="254.492188"/>
      </g>
     </g>
    </g>
    <g id="xtick_8">
     <g id="line2d_8">
      <g>
       <use xlink:href="#m66bfaba1e4" x="396.859313" y="226.84" style="stroke: #000000; stroke-width: 0.8"/>
      </g>
     </g>
     <g id="text_8">
      <!-- 14000 -->
      <g transform="translate(380.953063 241.438438)scale(0.1 -0.1)">
       <use xlink:href="#DejaVuSans-31"/>
       <use xlink:href="#DejaVuSans-34" x="63.623047"/>
       <use xlink:href="#DejaVuSans-30" x="127.246094"/>
       <use xlink:href="#DejaVuSans-30" x="190.869141"/>
       <use xlink:href="#DejaVuSans-30" x="254.492188"/>
      </g>
     </g>
    </g>
    <g id="text_9">
     <!-- Number of Words -->
     <g transform="translate(181.710156 255.116563)scale(0.1 -0.1)">
      <defs>
       <path id="DejaVuSans-4e" d="M 628 4666 
L 1478 4666 
L 3547 763 
L 3547 4666 
L 4159 4666 
L 4159 0 
L 3309 0 
L 1241 3903 
L 1241 0 
L 628 0 
L 628 4666 
z
" transform="scale(0.015625)"/>
       <path id="DejaVuSans-75" d="M 544 1381 
L 544 3500 
L 1119 3500 
L 1119 1403 
Q 1119 906 1312 657 
Q 1506 409 1894 409 
Q 2359 409 2629 706 
Q 2900 1003 2900 1516 
L 2900 3500 
L 3475 3500 
L 3475 0 
L 2900 0 
L 2900 538 
Q 2691 219 2414 64 
Q 2138 -91 1772 -91 
Q 1169 -91 856 284 
Q 544 659 544 1381 
z
M 1991 3584 
L 1991 3584 
z
" transform="scale(0.015625)"/>
       <path id="DejaVuSans-6d" d="M 3328 2828 
Q 3544 3216 3844 3400 
Q 4144 3584 4550 3584 
Q 5097 3584 5394 3201 
Q 5691 2819 5691 2113 
L 5691 0 
L 5113 0 
L 5113 2094 
Q 5113 2597 4934 2840 
Q 4756 3084 4391 3084 
Q 3944 3084 3684 2787 
Q 3425 2491 3425 1978 
L 3425 0 
L 2847 0 
L 2847 2094 
Q 2847 2600 2669 2842 
Q 2491 3084 2119 3084 
Q 1678 3084 1418 2786 
Q 1159 2488 1159 1978 
L 1159 0 
L 581 0 
L 581 3500 
L 1159 3500 
L 1159 2956 
Q 1356 3278 1631 3431 
Q 1906 3584 2284 3584 
Q 2666 3584 2933 3390 
Q 3200 3197 3328 2828 
z
" transform="scale(0.015625)"/>
       <path id="DejaVuSans-62" d="M 3116 1747 
Q 3116 2381 2855 2742 
Q 2594 3103 2138 3103 
Q 1681 3103 1420 2742 
Q 1159 2381 1159 1747 
Q 1159 1113 1420 752 
Q 1681 391 2138 391 
Q 2594 391 2855 752 
Q 3116 1113 3116 1747 
z
M 1159 2969 
Q 1341 3281 1617 3432 
Q 1894 3584 2278 3584 
Q 2916 3584 3314 3078 
Q 3713 2572 3713 1747 
Q 3713 922 3314 415 
Q 2916 -91 2278 -91 
Q 1894 -91 1617 61 
Q 1341 213 1159 525 
L 1159 0 
L 581 0 
L 581 4863 
L 1159 4863 
L 1159 2969 
z
" transform="scale(0.015625)"/>
       <path id="DejaVuSans-65" d="M 3597 1894 
L 3597 1613 
L 953 1613 
Q 991 1019 1311 708 
Q 1631 397 2203 397 
Q 2534 397 2845 478 
Q 3156 559 3463 722 
L 3463 178 
Q 3153 47 2828 -22 
Q 2503 -91 2169 -91 
Q 1331 -91 842 396 
Q 353 884 353 1716 
Q 353 2575 817 3079 
Q 1281 3584 2069 3584 
Q 2775 3584 3186 3129 
Q 3597 2675 3597 1894 
z
M 3022 2063 
Q 3016 2534 2758 2815 
Q 2500 3097 2075 3097 
Q 1594 3097 1305 2825 
Q 1016 2553 972 2059 
L 3022 2063 
z
" transform="scale(0.015625)"/>
       <path id="DejaVuSans-72" d="M 2631 2963 
Q 2534 3019 2420 3045 
Q 2306 3072 2169 3072 
Q 1681 3072 1420 2755 
Q 1159 2438 1159 1844 
L 1159 0 
L 581 0 
L 581 3500 
L 1159 3500 
L 1159 2956 
Q 1341 3275 1631 3429 
Q 1922 3584 2338 3584 
Q 2397 3584 2469 3576 
Q 2541 3569 2628 3553 
L 2631 2963 
z
" transform="scale(0.015625)"/>
       <path id="DejaVuSans-20" transform="scale(0.015625)"/>
       <path id="DejaVuSans-6f" d="M 1959 3097 
Q 1497 3097 1228 2736 
Q 959 2375 959 1747 
Q 959 1119 1226 758 
Q 1494 397 1959 397 
Q 2419 397 2687 759 
Q 2956 1122 2956 1747 
Q 2956 2369 2687 2733 
Q 2419 3097 1959 3097 
z
M 1959 3584 
Q 2709 3584 3137 3096 
Q 3566 2609 3566 1747 
Q 3566 888 3137 398 
Q 2709 -91 1959 -91 
Q 1206 -91 779 398 
Q 353 888 353 1747 
Q 353 2609 779 3096 
Q 1206 3584 1959 3584 
z
" transform="scale(0.015625)"/>
       <path id="DejaVuSans-66" d="M 2375 4863 
L 2375 4384 
L 1825 4384 
Q 1516 4384 1395 4259 
Q 1275 4134 1275 3809 
L 1275 3500 
L 2222 3500 
L 2222 3053 
L 1275 3053 
L 1275 0 
L 697 0 
L 697 3053 
L 147 3053 
L 147 3500 
L 697 3500 
L 697 3744 
Q 697 4328 969 4595 
Q 1241 4863 1831 4863 
L 2375 4863 
z
" transform="scale(0.015625)"/>
       <path id="DejaVuSans-57" d="M 213 4666 
L 850 4666 
L 1831 722 
L 2809 4666 
L 3519 4666 
L 4500 722 
L 5478 4666 
L 6119 4666 
L 4947 0 
L 4153 0 
L 3169 4050 
L 2175 0 
L 1381 0 
L 213 4666 
z
" transform="scale(0.015625)"/>
       <path id="DejaVuSans-64" d="M 2906 2969 
L 2906 4863 
L 3481 4863 
L 3481 0 
L 2906 0 
L 2906 525 
Q 2725 213 2448 61 
Q 2172 -91 1784 -91 
Q 1150 -91 751 415 
Q 353 922 353 1747 
Q 353 2572 751 3078 
Q 1150 3584 1784 3584 
Q 2172 3584 2448 3432 
Q 2725 3281 2906 2969 
z
M 947 1747 
Q 947 1113 1208 752 
Q 1469 391 1925 391 
Q 2381 391 2643 752 
Q 2906 1113 2906 1747 
Q 2906 2381 2643 2742 
Q 2381 3103 1925 3103 
Q 1469 3103 1208 2742 
Q 947 2381 947 1747 
z
" transform="scale(0.015625)"/>
       <path id="DejaVuSans-73" d="M 2834 3397 
L 2834 2853 
Q 2591 2978 2328 3040 
Q 2066 3103 1784 3103 
Q 1356 3103 1142 2972 
Q 928 2841 928 2578 
Q 928 2378 1081 2264 
Q 1234 2150 1697 2047 
L 1894 2003 
Q 2506 1872 2764 1633 
Q 3022 1394 3022 966 
Q 3022 478 2636 193 
Q 2250 -91 1575 -91 
Q 1294 -91 989 -36 
Q 684 19 347 128 
L 347 722 
Q 666 556 975 473 
Q 1284 391 1588 391 
Q 1994 391 2212 530 
Q 2431 669 2431 922 
Q 2431 1156 2273 1281 
Q 2116 1406 1581 1522 
L 1381 1569 
Q 847 1681 609 1914 
Q 372 2147 372 2553 
Q 372 3047 722 3315 
Q 1072 3584 1716 3584 
Q 2034 3584 2315 3537 
Q 2597 3491 2834 3397 
z
" transform="scale(0.015625)"/>
      </defs>
      <use xlink:href="#DejaVuSans-4e"/>
      <use xlink:href="#DejaVuSans-75" x="74.804688"/>
      <use xlink:href="#DejaVuSans-6d" x="138.183594"/>
      <use xlink:href="#DejaVuSans-62" x="235.595703"/>
      <use xlink:href="#DejaVuSans-65" x="299.072266"/>
      <use xlink:href="#DejaVuSans-72" x="360.595703"/>
      <use xlink:href="#DejaVuSans-20" x="401.708984"/>
      <use xlink:href="#DejaVuSans-6f" x="433.496094"/>
      <use xlink:href="#DejaVuSans-66" x="494.677734"/>
      <use xlink:href="#DejaVuSans-20" x="529.882812"/>
      <use xlink:href="#DejaVuSans-57" x="561.669922"/>
      <use xlink:href="#DejaVuSans-6f" x="654.671875"/>
      <use xlink:href="#DejaVuSans-72" x="715.853516"/>
      <use xlink:href="#DejaVuSans-64" x="755.216797"/>
      <use xlink:href="#DejaVuSans-73" x="818.693359"/>
     </g>
    </g>
   </g>
   <g id="matplotlib.axis_2"/>
   <g id="line2d_9">
    <path d="M 91.143671 226.84 
L 91.143671 44.64 
" clip-path="url(#pea803a994e)" style="fill: none; stroke-dasharray: 5.55,2.4; stroke-dashoffset: 0; stroke: #000000; stroke-width: 1.5"/>
   </g>
   <g id="patch_3">
    <path d="M 33.5 226.84 
L 33.5 44.64 
" style="fill: none; stroke: #000000; stroke-width: 0.8; stroke-linejoin: miter; stroke-linecap: square"/>
   </g>
   <g id="patch_4">
    <path d="M 417 226.84 
L 417 44.64 
" style="fill: none; stroke: #000000; stroke-width: 0.8; stroke-linejoin: miter; stroke-linecap: square"/>
   </g>
   <g id="patch_5">
    <path d="M 33.5 226.84 
L 417 226.84 
" style="fill: none; stroke: #000000; stroke-width: 0.8; stroke-linejoin: miter; stroke-linecap: square"/>
   </g>
   <g id="patch_6">
    <path d="M 33.5 44.64 
L 417 44.64 
" style="fill: none; stroke: #000000; stroke-width: 0.8; stroke-linejoin: miter; stroke-linecap: square"/>
   </g>
   <g id="text_10">
    <!-- Positive Reviews Length Distribution -->
    <g transform="translate(116.170937 38.64)scale(0.12 -0.12)">
     <defs>
      <path id="DejaVuSans-50" d="M 1259 4147 
L 1259 2394 
L 2053 2394 
Q 2494 2394 2734 2622 
Q 2975 2850 2975 3272 
Q 2975 3691 2734 3919 
Q 2494 4147 2053 4147 
L 1259 4147 
z
M 628 4666 
L 2053 4666 
Q 2838 4666 3239 4311 
Q 3641 3956 3641 3272 
Q 3641 2581 3239 2228 
Q 2838 1875 2053 1875 
L 1259 1875 
L 1259 0 
L 628 0 
L 628 4666 
z
" transform="scale(0.015625)"/>
      <path id="DejaVuSans-69" d="M 603 3500 
L 1178 3500 
L 1178 0 
L 603 0 
L 603 3500 
z
M 603 4863 
L 1178 4863 
L 1178 4134 
L 603 4134 
L 603 4863 
z
" transform="scale(0.015625)"/>
      <path id="DejaVuSans-74" d="M 1172 4494 
L 1172 3500 
L 2356 3500 
L 2356 3053 
L 1172 3053 
L 1172 1153 
Q 1172 725 1289 603 
Q 1406 481 1766 481 
L 2356 481 
L 2356 0 
L 1766 0 
Q 1100 0 847 248 
Q 594 497 594 1153 
L 594 3053 
L 172 3053 
L 172 3500 
L 594 3500 
L 594 4494 
L 1172 4494 
z
" transform="scale(0.015625)"/>
      <path id="DejaVuSans-76" d="M 191 3500 
L 800 3500 
L 1894 563 
L 2988 3500 
L 3597 3500 
L 2284 0 
L 1503 0 
L 191 3500 
z
" transform="scale(0.015625)"/>
      <path id="DejaVuSans-52" d="M 2841 2188 
Q 3044 2119 3236 1894 
Q 3428 1669 3622 1275 
L 4263 0 
L 3584 0 
L 2988 1197 
Q 2756 1666 2539 1819 
Q 2322 1972 1947 1972 
L 1259 1972 
L 1259 0 
L 628 0 
L 628 4666 
L 2053 4666 
Q 2853 4666 3247 4331 
Q 3641 3997 3641 3322 
Q 3641 2881 3436 2590 
Q 3231 2300 2841 2188 
z
M 1259 4147 
L 1259 2491 
L 2053 2491 
Q 2509 2491 2742 2702 
Q 2975 2913 2975 3322 
Q 2975 3731 2742 3939 
Q 2509 4147 2053 4147 
L 1259 4147 
z
" transform="scale(0.015625)"/>
      <path id="DejaVuSans-77" d="M 269 3500 
L 844 3500 
L 1563 769 
L 2278 3500 
L 2956 3500 
L 3675 769 
L 4391 3500 
L 4966 3500 
L 4050 0 
L 3372 0 
L 2619 2869 
L 1863 0 
L 1184 0 
L 269 3500 
z
" transform="scale(0.015625)"/>
      <path id="DejaVuSans-4c" d="M 628 4666 
L 1259 4666 
L 1259 531 
L 3531 531 
L 3531 0 
L 628 0 
L 628 4666 
z
" transform="scale(0.015625)"/>
      <path id="DejaVuSans-6e" d="M 3513 2113 
L 3513 0 
L 2938 0 
L 2938 2094 
Q 2938 2591 2744 2837 
Q 2550 3084 2163 3084 
Q 1697 3084 1428 2787 
Q 1159 2491 1159 1978 
L 1159 0 
L 581 0 
L 581 3500 
L 1159 3500 
L 1159 2956 
Q 1366 3272 1645 3428 
Q 1925 3584 2291 3584 
Q 2894 3584 3203 3211 
Q 3513 2838 3513 2113 
z
" transform="scale(0.015625)"/>
      <path id="DejaVuSans-67" d="M 2906 1791 
Q 2906 2416 2648 2759 
Q 2391 3103 1925 3103 
Q 1463 3103 1205 2759 
Q 947 2416 947 1791 
Q 947 1169 1205 825 
Q 1463 481 1925 481 
Q 2391 481 2648 825 
Q 2906 1169 2906 1791 
z
M 3481 434 
Q 3481 -459 3084 -895 
Q 2688 -1331 1869 -1331 
Q 1566 -1331 1297 -1286 
Q 1028 -1241 775 -1147 
L 775 -588 
Q 1028 -725 1275 -790 
Q 1522 -856 1778 -856 
Q 2344 -856 2625 -561 
Q 2906 -266 2906 331 
L 2906 616 
Q 2728 306 2450 153 
Q 2172 0 1784 0 
Q 1141 0 747 490 
Q 353 981 353 1791 
Q 353 2603 747 3093 
Q 1141 3584 1784 3584 
Q 2172 3584 2450 3431 
Q 2728 3278 2906 2969 
L 2906 3500 
L 3481 3500 
L 3481 434 
z
" transform="scale(0.015625)"/>
      <path id="DejaVuSans-68" d="M 3513 2113 
L 3513 0 
L 2938 0 
L 2938 2094 
Q 2938 2591 2744 2837 
Q 2550 3084 2163 3084 
Q 1697 3084 1428 2787 
Q 1159 2491 1159 1978 
L 1159 0 
L 581 0 
L 581 4863 
L 1159 4863 
L 1159 2956 
Q 1366 3272 1645 3428 
Q 1925 3584 2291 3584 
Q 2894 3584 3203 3211 
Q 3513 2838 3513 2113 
z
" transform="scale(0.015625)"/>
      <path id="DejaVuSans-44" d="M 1259 4147 
L 1259 519 
L 2022 519 
Q 2988 519 3436 956 
Q 3884 1394 3884 2338 
Q 3884 3275 3436 3711 
Q 2988 4147 2022 4147 
L 1259 4147 
z
M 628 4666 
L 1925 4666 
Q 3281 4666 3915 4102 
Q 4550 3538 4550 2338 
Q 4550 1131 3912 565 
Q 3275 0 1925 0 
L 628 0 
L 628 4666 
z
" transform="scale(0.015625)"/>
     </defs>
     <use xlink:href="#DejaVuSans-50"/>
     <use xlink:href="#DejaVuSans-6f" x="56.677734"/>
     <use xlink:href="#DejaVuSans-73" x="117.859375"/>
     <use xlink:href="#DejaVuSans-69" x="169.958984"/>
     <use xlink:href="#DejaVuSans-74" x="197.742188"/>
     <use xlink:href="#DejaVuSans-69" x="236.951172"/>
     <use xlink:href="#DejaVuSans-76" x="264.734375"/>
     <use xlink:href="#DejaVuSans-65" x="323.914062"/>
     <use xlink:href="#DejaVuSans-20" x="385.4375"/>
     <use xlink:href="#DejaVuSans-52" x="417.224609"/>
     <use xlink:href="#DejaVuSans-65" x="482.207031"/>
     <use xlink:href="#DejaVuSans-76" x="543.730469"/>
     <use xlink:href="#DejaVuSans-69" x="602.910156"/>
     <use xlink:href="#DejaVuSans-65" x="630.693359"/>
     <use xlink:href="#DejaVuSans-77" x="692.216797"/>
     <use xlink:href="#DejaVuSans-73" x="774.003906"/>
     <use xlink:href="#DejaVuSans-20" x="826.103516"/>
     <use xlink:href="#DejaVuSans-4c" x="857.890625"/>
     <use xlink:href="#DejaVuSans-65" x="911.853516"/>
     <use xlink:href="#DejaVuSans-6e" x="973.376953"/>
     <use xlink:href="#DejaVuSans-67" x="1036.755859"/>
     <use xlink:href="#DejaVuSans-74" x="1100.232422"/>
     <use xlink:href="#DejaVuSans-68" x="1139.441406"/>
     <use xlink:href="#DejaVuSans-20" x="1202.820312"/>
     <use xlink:href="#DejaVuSans-44" x="1234.607422"/>
     <use xlink:href="#DejaVuSans-69" x="1311.609375"/>
     <use xlink:href="#DejaVuSans-73" x="1339.392578"/>
     <use xlink:href="#DejaVuSans-74" x="1391.492188"/>
     <use xlink:href="#DejaVuSans-72" x="1430.701172"/>
     <use xlink:href="#DejaVuSans-69" x="1471.814453"/>
     <use xlink:href="#DejaVuSans-62" x="1499.597656"/>
     <use xlink:href="#DejaVuSans-75" x="1563.074219"/>
     <use xlink:href="#DejaVuSans-74" x="1626.453125"/>
     <use xlink:href="#DejaVuSans-69" x="1665.662109"/>
     <use xlink:href="#DejaVuSans-6f" x="1693.445312"/>
     <use xlink:href="#DejaVuSans-6e" x="1754.626953"/>
    </g>
   </g>
  </g>
  <g id="axes_2">
   <g id="patch_7">
    <path d="M 450.5 226.84 
L 834 226.84 
L 834 44.64 
L 450.5 44.64 
z
" style="fill: #ffffff"/>
   </g>
   <g id="PolyCollection_2">
    <defs>
     <path id="m7b1038f56d" d="M 467.931818 -61.162585 
L 467.931818 -61.16 
L 469.68376 -61.16 
L 471.435701 -61.16 
L 473.187643 -61.16 
L 474.939584 -61.16 
L 476.691526 -61.16 
L 478.443467 -61.16 
L 480.195409 -61.16 
L 481.94735 -61.16 
L 483.699292 -61.16 
L 485.451233 -61.16 
L 487.203175 -61.16 
L 488.955116 -61.16 
L 490.707058 -61.16 
L 492.459 -61.16 
L 494.210941 -61.16 
L 495.962883 -61.16 
L 497.714824 -61.16 
L 499.466766 -61.16 
L 501.218707 -61.16 
L 502.970649 -61.16 
L 504.72259 -61.16 
L 506.474532 -61.16 
L 508.226473 -61.16 
L 509.978415 -61.16 
L 511.730356 -61.16 
L 513.482298 -61.16 
L 515.234239 -61.16 
L 516.986181 -61.16 
L 518.738122 -61.16 
L 520.490064 -61.16 
L 522.242005 -61.16 
L 523.993947 -61.16 
L 525.745889 -61.16 
L 527.49783 -61.16 
L 529.249772 -61.16 
L 531.001713 -61.16 
L 532.753655 -61.16 
L 534.505596 -61.16 
L 536.257538 -61.16 
L 538.009479 -61.16 
L 539.761421 -61.16 
L 541.513362 -61.16 
L 543.265304 -61.16 
L 545.017245 -61.16 
L 546.769187 -61.16 
L 548.521128 -61.16 
L 550.27307 -61.16 
L 552.025011 -61.16 
L 553.776953 -61.16 
L 555.528894 -61.16 
L 557.280836 -61.16 
L 559.032778 -61.16 
L 560.784719 -61.16 
L 562.536661 -61.16 
L 564.288602 -61.16 
L 566.040544 -61.16 
L 567.792485 -61.16 
L 569.544427 -61.16 
L 571.296368 -61.16 
L 573.04831 -61.16 
L 574.800251 -61.16 
L 576.552193 -61.16 
L 578.304134 -61.16 
L 580.056076 -61.16 
L 581.808017 -61.16 
L 583.559959 -61.16 
L 585.3119 -61.16 
L 587.063842 -61.16 
L 588.815783 -61.16 
L 590.567725 -61.16 
L 592.319667 -61.16 
L 594.071608 -61.16 
L 595.82355 -61.16 
L 597.575491 -61.16 
L 599.327433 -61.16 
L 601.079374 -61.16 
L 602.831316 -61.16 
L 604.583257 -61.16 
L 606.335199 -61.16 
L 608.08714 -61.16 
L 609.839082 -61.16 
L 611.591023 -61.16 
L 613.342965 -61.16 
L 615.094906 -61.16 
L 616.846848 -61.16 
L 618.598789 -61.16 
L 620.350731 -61.16 
L 622.102672 -61.16 
L 623.854614 -61.16 
L 625.606556 -61.16 
L 627.358497 -61.16 
L 629.110439 -61.16 
L 630.86238 -61.16 
L 632.614322 -61.16 
L 634.366263 -61.16 
L 636.118205 -61.16 
L 637.870146 -61.16 
L 639.622088 -61.16 
L 641.374029 -61.16 
L 643.125971 -61.16 
L 644.877912 -61.16 
L 646.629854 -61.16 
L 648.381795 -61.16 
L 650.133737 -61.16 
L 651.885678 -61.16 
L 653.63762 -61.16 
L 655.389561 -61.16 
L 657.141503 -61.16 
L 658.893444 -61.16 
L 660.645386 -61.16 
L 662.397328 -61.16 
L 664.149269 -61.16 
L 665.901211 -61.16 
L 667.653152 -61.16 
L 669.405094 -61.16 
L 671.157035 -61.16 
L 672.908977 -61.16 
L 674.660918 -61.16 
L 676.41286 -61.16 
L 678.164801 -61.16 
L 679.916743 -61.16 
L 681.668684 -61.16 
L 683.420626 -61.16 
L 685.172567 -61.16 
L 686.924509 -61.16 
L 688.67645 -61.16 
L 690.428392 -61.16 
L 692.180333 -61.16 
L 693.932275 -61.16 
L 695.684217 -61.16 
L 697.436158 -61.16 
L 699.1881 -61.16 
L 700.940041 -61.16 
L 702.691983 -61.16 
L 704.443924 -61.16 
L 706.195866 -61.16 
L 707.947807 -61.16 
L 709.699749 -61.16 
L 711.45169 -61.16 
L 713.203632 -61.16 
L 714.955573 -61.16 
L 716.707515 -61.16 
L 718.459456 -61.16 
L 720.211398 -61.16 
L 721.963339 -61.16 
L 723.715281 -61.16 
L 725.467222 -61.16 
L 727.219164 -61.16 
L 728.971106 -61.16 
L 730.723047 -61.16 
L 732.474989 -61.16 
L 734.22693 -61.16 
L 735.978872 -61.16 
L 737.730813 -61.16 
L 739.482755 -61.16 
L 741.234696 -61.16 
L 742.986638 -61.16 
L 744.738579 -61.16 
L 746.490521 -61.16 
L 748.242462 -61.16 
L 749.994404 -61.16 
L 751.746345 -61.16 
L 753.498287 -61.16 
L 755.250228 -61.16 
L 757.00217 -61.16 
L 758.754111 -61.16 
L 760.506053 -61.16 
L 762.257995 -61.16 
L 764.009936 -61.16 
L 765.761878 -61.16 
L 767.513819 -61.16 
L 769.265761 -61.16 
L 771.017702 -61.16 
L 772.769644 -61.16 
L 774.521585 -61.16 
L 776.273527 -61.16 
L 778.025468 -61.16 
L 779.77741 -61.16 
L 781.529351 -61.16 
L 783.281293 -61.16 
L 785.033234 -61.16 
L 786.785176 -61.16 
L 788.537117 -61.16 
L 790.289059 -61.16 
L 792.041 -61.16 
L 793.792942 -61.16 
L 795.544884 -61.16 
L 797.296825 -61.16 
L 799.048767 -61.16 
L 800.800708 -61.16 
L 802.55265 -61.16 
L 804.304591 -61.16 
L 806.056533 -61.16 
L 807.808474 -61.16 
L 809.560416 -61.16 
L 811.312357 -61.16 
L 813.064299 -61.16 
L 814.81624 -61.16 
L 816.568182 -61.16 
L 816.568182 -61.160256 
L 816.568182 -61.160256 
L 814.81624 -61.160766 
L 813.064299 -61.16197 
L 811.312357 -61.16436 
L 809.560416 -61.168325 
L 807.808474 -61.173771 
L 806.056533 -61.179881 
L 804.304591 -61.185383 
L 802.55265 -61.189259 
L 800.800708 -61.191282 
L 799.048767 -61.191801 
L 797.296825 -61.191016 
L 795.544884 -61.188647 
L 793.792942 -61.184406 
L 792.041 -61.178684 
L 790.289059 -61.17261 
L 788.537117 -61.167414 
L 786.785176 -61.163773 
L 785.033234 -61.161655 
L 783.281293 -61.160625 
L 781.529351 -61.160203 
L 779.77741 -61.160058 
L 778.025468 -61.160021 
L 776.273527 -61.160036 
L 774.521585 -61.160135 
L 772.769644 -61.160467 
L 771.017702 -61.161401 
L 769.265761 -61.163613 
L 767.513819 -61.168022 
L 765.761878 -61.175331 
L 764.009936 -61.185222 
L 762.257995 -61.195733 
L 760.506053 -61.203634 
L 758.754111 -61.20605 
L 757.00217 -61.202358 
L 755.250228 -61.194798 
L 753.498287 -61.187203 
L 751.746345 -61.182801 
L 749.994404 -61.1827 
L 748.242462 -61.18596 
L 746.490521 -61.190889 
L 744.738579 -61.196361 
L 742.986638 -61.202032 
L 741.234696 -61.207386 
L 739.482755 -61.210844 
L 737.730813 -61.210234 
L 735.978872 -61.204434 
L 734.22693 -61.194541 
L 732.474989 -61.183349 
L 730.723047 -61.173652 
L 728.971106 -61.166903 
L 727.219164 -61.16309 
L 725.467222 -61.161488 
L 723.715281 -61.161502 
L 721.963339 -61.16314 
L 720.211398 -61.167078 
L 718.459456 -61.174363 
L 716.707515 -61.185853 
L 714.955573 -61.20166 
L 713.203632 -61.221074 
L 711.45169 -61.24325 
L 709.699749 -61.268383 
L 707.947807 -61.298612 
L 706.195866 -61.337954 
L 704.443924 -61.391147 
L 702.691983 -61.462022 
L 700.940041 -61.552465 
L 699.1881 -61.662548 
L 697.436158 -61.791369 
L 695.684217 -61.93766 
L 693.932275 -62.099958 
L 692.180333 -62.276562 
L 690.428392 -62.46492 
L 688.67645 -62.659727 
L 686.924509 -62.850319 
L 685.172567 -63.019569 
L 683.420626 -63.146458 
L 681.668684 -63.212737 
L 679.916743 -63.211564 
L 678.164801 -63.153762 
L 676.41286 -63.067128 
L 674.660918 -62.987507 
L 672.908977 -62.945505 
L 671.157035 -62.955428 
L 669.405094 -63.011369 
L 667.653152 -63.091517 
L 665.901211 -63.168668 
L 664.149269 -63.222854 
L 662.397328 -63.250454 
L 660.645386 -63.264657 
L 658.893444 -63.286607 
L 657.141503 -63.332676 
L 655.389561 -63.405655 
L 653.63762 -63.494009 
L 651.885678 -63.578069 
L 650.133737 -63.639874 
L 648.381795 -63.673289 
L 646.629854 -63.689948 
L 644.877912 -63.716298 
L 643.125971 -63.781849 
L 641.374029 -63.905892 
L 639.622088 -64.090668 
L 637.870146 -64.321623 
L 636.118205 -64.57009 
L 634.366263 -64.798127 
L 632.614322 -64.97046 
L 630.86238 -65.071974 
L 629.110439 -65.117737 
L 627.358497 -65.144418 
L 625.606556 -65.188706 
L 623.854614 -65.270021 
L 622.102672 -65.388333 
L 620.350731 -65.533047 
L 618.598789 -65.692622 
L 616.846848 -65.860108 
L 615.094906 -66.036528 
L 613.342965 -66.233134 
L 611.591023 -66.468438 
L 609.839082 -66.756853 
L 608.08714 -67.094657 
L 606.335199 -67.45577 
L 604.583257 -67.804687 
L 602.831316 -68.119652 
L 601.079374 -68.408975 
L 599.327433 -68.707846 
L 597.575491 -69.058005 
L 595.82355 -69.483909 
L 594.071608 -69.978595 
L 592.319667 -70.505389 
L 590.567725 -71.014548 
L 588.815783 -71.467227 
L 587.063842 -71.854358 
L 585.3119 -72.20085 
L 583.559959 -72.555103 
L 581.808017 -72.97073 
L 580.056076 -73.487636 
L 578.304134 -74.118822 
L 576.552193 -74.850229 
L 574.800251 -75.656555 
L 573.04831 -76.523249 
L 571.296368 -77.456182 
L 569.544427 -78.469413 
L 567.792485 -79.5624 
L 566.040544 -80.709036 
L 564.288602 -81.870121 
L 562.536661 -83.019318 
L 560.784719 -84.160731 
L 559.032778 -85.323863 
L 557.280836 -86.54153 
L 555.528894 -87.830011 
L 553.776953 -89.186277 
L 552.025011 -90.601324 
L 550.27307 -92.077858 
L 548.521128 -93.640932 
L 546.769187 -95.335422 
L 545.017245 -97.209759 
L 543.265304 -99.292518 
L 541.513362 -101.576109 
L 539.761421 -104.023074 
L 538.009479 -106.599956 
L 536.257538 -109.323919 
L 534.505596 -112.290951 
L 532.753655 -115.659056 
L 531.001713 -119.59156 
L 529.249772 -124.200404 
L 527.49783 -129.529387 
L 525.745889 -135.581012 
L 523.993947 -142.359831 
L 522.242005 -149.907274 
L 520.490064 -158.319468 
L 518.738122 -167.745142 
L 516.986181 -178.351783 
L 515.234239 -190.226127 
L 513.482298 -203.153991 
L 511.730356 -216.266137 
L 509.978415 -227.705305 
L 508.226473 -234.68381 
L 506.474532 -234.281374 
L 504.72259 -224.856891 
L 502.970649 -207.266173 
L 501.218707 -184.896051 
L 499.466766 -162.260023 
L 497.714824 -143.004061 
L 495.962883 -128.590978 
L 494.210941 -118.310733 
L 492.459 -110.297904 
L 490.707058 -102.763647 
L 488.955116 -94.803422 
L 487.203175 -86.546168 
L 485.451233 -78.764897 
L 483.699292 -72.283568 
L 481.94735 -67.539097 
L 480.195409 -64.479418 
L 478.443467 -62.730752 
L 476.691526 -61.838182 
L 474.939584 -61.427913 
L 473.187643 -61.256893 
L 471.435701 -61.191992 
L 469.68376 -61.169586 
L 467.931818 -61.162585 
z
" style="stroke: #008000"/>
    </defs>
    <g clip-path="url(#p2df01bb115)">
     <use xlink:href="#m7b1038f56d" x="0" y="288" style="fill: #008000; fill-opacity: 0.25; stroke: #008000"/>
    </g>
   </g>
   <g id="matplotlib.axis_3">
    <g id="xtick_9">
     <g id="line2d_10">
      <g>
       <use xlink:href="#m66bfaba1e4" x="480.257497" y="226.84" style="stroke: #000000; stroke-width: 0.8"/>
      </g>
     </g>
     <g id="text_11">
      <!-- 0 -->
      <g transform="translate(477.076247 241.438438)scale(0.1 -0.1)">
       <use xlink:href="#DejaVuSans-30"/>
      </g>
     </g>
    </g>
    <g id="xtick_10">
     <g id="line2d_11">
      <g>
       <use xlink:href="#m66bfaba1e4" x="552.246166" y="226.84" style="stroke: #000000; stroke-width: 0.8"/>
      </g>
     </g>
     <g id="text_12">
      <!-- 2000 -->
      <g transform="translate(539.521166 241.438438)scale(0.1 -0.1)">
       <use xlink:href="#DejaVuSans-32"/>
       <use xlink:href="#DejaVuSans-30" x="63.623047"/>
       <use xlink:href="#DejaVuSans-30" x="127.246094"/>
       <use xlink:href="#DejaVuSans-30" x="190.869141"/>
      </g>
     </g>
    </g>
    <g id="xtick_11">
     <g id="line2d_12">
      <g>
       <use xlink:href="#m66bfaba1e4" x="624.234836" y="226.84" style="stroke: #000000; stroke-width: 0.8"/>
      </g>
     </g>
     <g id="text_13">
      <!-- 4000 -->
      <g transform="translate(611.509836 241.438438)scale(0.1 -0.1)">
       <use xlink:href="#DejaVuSans-34"/>
       <use xlink:href="#DejaVuSans-30" x="63.623047"/>
       <use xlink:href="#DejaVuSans-30" x="127.246094"/>
       <use xlink:href="#DejaVuSans-30" x="190.869141"/>
      </g>
     </g>
    </g>
    <g id="xtick_12">
     <g id="line2d_13">
      <g>
       <use xlink:href="#m66bfaba1e4" x="696.223505" y="226.84" style="stroke: #000000; stroke-width: 0.8"/>
      </g>
     </g>
     <g id="text_14">
      <!-- 6000 -->
      <g transform="translate(683.498505 241.438438)scale(0.1 -0.1)">
       <use xlink:href="#DejaVuSans-36"/>
       <use xlink:href="#DejaVuSans-30" x="63.623047"/>
       <use xlink:href="#DejaVuSans-30" x="127.246094"/>
       <use xlink:href="#DejaVuSans-30" x="190.869141"/>
      </g>
     </g>
    </g>
    <g id="xtick_13">
     <g id="line2d_14">
      <g>
       <use xlink:href="#m66bfaba1e4" x="768.212174" y="226.84" style="stroke: #000000; stroke-width: 0.8"/>
      </g>
     </g>
     <g id="text_15">
      <!-- 8000 -->
      <g transform="translate(755.487174 241.438438)scale(0.1 -0.1)">
       <use xlink:href="#DejaVuSans-38"/>
       <use xlink:href="#DejaVuSans-30" x="63.623047"/>
       <use xlink:href="#DejaVuSans-30" x="127.246094"/>
       <use xlink:href="#DejaVuSans-30" x="190.869141"/>
      </g>
     </g>
    </g>
    <g id="text_16">
     <!-- Number of Words -->
     <g transform="translate(598.710156 255.116563)scale(0.1 -0.1)">
      <use xlink:href="#DejaVuSans-4e"/>
      <use xlink:href="#DejaVuSans-75" x="74.804688"/>
      <use xlink:href="#DejaVuSans-6d" x="138.183594"/>
      <use xlink:href="#DejaVuSans-62" x="235.595703"/>
      <use xlink:href="#DejaVuSans-65" x="299.072266"/>
      <use xlink:href="#DejaVuSans-72" x="360.595703"/>
      <use xlink:href="#DejaVuSans-20" x="401.708984"/>
      <use xlink:href="#DejaVuSans-6f" x="433.496094"/>
      <use xlink:href="#DejaVuSans-66" x="494.677734"/>
      <use xlink:href="#DejaVuSans-20" x="529.882812"/>
      <use xlink:href="#DejaVuSans-57" x="561.669922"/>
      <use xlink:href="#DejaVuSans-6f" x="654.671875"/>
      <use xlink:href="#DejaVuSans-72" x="715.853516"/>
      <use xlink:href="#DejaVuSans-64" x="755.216797"/>
      <use xlink:href="#DejaVuSans-73" x="818.693359"/>
     </g>
    </g>
   </g>
   <g id="matplotlib.axis_4"/>
   <g id="line2d_15">
    <path d="M 526.834166 226.84 
L 526.834166 44.64 
" clip-path="url(#p2df01bb115)" style="fill: none; stroke-dasharray: 5.55,2.4; stroke-dashoffset: 0; stroke: #000000; stroke-width: 1.5"/>
   </g>
   <g id="patch_8">
    <path d="M 450.5 226.84 
L 450.5 44.64 
" style="fill: none; stroke: #000000; stroke-width: 0.8; stroke-linejoin: miter; stroke-linecap: square"/>
   </g>
   <g id="patch_9">
    <path d="M 834 226.84 
L 834 44.64 
" style="fill: none; stroke: #000000; stroke-width: 0.8; stroke-linejoin: miter; stroke-linecap: square"/>
   </g>
   <g id="patch_10">
    <path d="M 450.5 226.84 
L 834 226.84 
" style="fill: none; stroke: #000000; stroke-width: 0.8; stroke-linejoin: miter; stroke-linecap: square"/>
   </g>
   <g id="patch_11">
    <path d="M 450.5 44.64 
L 834 44.64 
" style="fill: none; stroke: #000000; stroke-width: 0.8; stroke-linejoin: miter; stroke-linecap: square"/>
   </g>
   <g id="text_17">
    <!-- Negative Reviews Length Distribution -->
    <g transform="translate(529.368437 38.64)scale(0.12 -0.12)">
     <defs>
      <path id="DejaVuSans-61" d="M 2194 1759 
Q 1497 1759 1228 1600 
Q 959 1441 959 1056 
Q 959 750 1161 570 
Q 1363 391 1709 391 
Q 2188 391 2477 730 
Q 2766 1069 2766 1631 
L 2766 1759 
L 2194 1759 
z
M 3341 1997 
L 3341 0 
L 2766 0 
L 2766 531 
Q 2569 213 2275 61 
Q 1981 -91 1556 -91 
Q 1019 -91 701 211 
Q 384 513 384 1019 
Q 384 1609 779 1909 
Q 1175 2209 1959 2209 
L 2766 2209 
L 2766 2266 
Q 2766 2663 2505 2880 
Q 2244 3097 1772 3097 
Q 1472 3097 1187 3025 
Q 903 2953 641 2809 
L 641 3341 
Q 956 3463 1253 3523 
Q 1550 3584 1831 3584 
Q 2591 3584 2966 3190 
Q 3341 2797 3341 1997 
z
" transform="scale(0.015625)"/>
     </defs>
     <use xlink:href="#DejaVuSans-4e"/>
     <use xlink:href="#DejaVuSans-65" x="74.804688"/>
     <use xlink:href="#DejaVuSans-67" x="136.328125"/>
     <use xlink:href="#DejaVuSans-61" x="199.804688"/>
     <use xlink:href="#DejaVuSans-74" x="261.083984"/>
     <use xlink:href="#DejaVuSans-69" x="300.292969"/>
     <use xlink:href="#DejaVuSans-76" x="328.076172"/>
     <use xlink:href="#DejaVuSans-65" x="387.255859"/>
     <use xlink:href="#DejaVuSans-20" x="448.779297"/>
     <use xlink:href="#DejaVuSans-52" x="480.566406"/>
     <use xlink:href="#DejaVuSans-65" x="545.548828"/>
     <use xlink:href="#DejaVuSans-76" x="607.072266"/>
     <use xlink:href="#DejaVuSans-69" x="666.251953"/>
     <use xlink:href="#DejaVuSans-65" x="694.035156"/>
     <use xlink:href="#DejaVuSans-77" x="755.558594"/>
     <use xlink:href="#DejaVuSans-73" x="837.345703"/>
     <use xlink:href="#DejaVuSans-20" x="889.445312"/>
     <use xlink:href="#DejaVuSans-4c" x="921.232422"/>
     <use xlink:href="#DejaVuSans-65" x="975.195312"/>
     <use xlink:href="#DejaVuSans-6e" x="1036.71875"/>
     <use xlink:href="#DejaVuSans-67" x="1100.097656"/>
     <use xlink:href="#DejaVuSans-74" x="1163.574219"/>
     <use xlink:href="#DejaVuSans-68" x="1202.783203"/>
     <use xlink:href="#DejaVuSans-20" x="1266.162109"/>
     <use xlink:href="#DejaVuSans-44" x="1297.949219"/>
     <use xlink:href="#DejaVuSans-69" x="1374.951172"/>
     <use xlink:href="#DejaVuSans-73" x="1402.734375"/>
     <use xlink:href="#DejaVuSans-74" x="1454.833984"/>
     <use xlink:href="#DejaVuSans-72" x="1494.042969"/>
     <use xlink:href="#DejaVuSans-69" x="1535.15625"/>
     <use xlink:href="#DejaVuSans-62" x="1562.939453"/>
     <use xlink:href="#DejaVuSans-75" x="1626.416016"/>
     <use xlink:href="#DejaVuSans-74" x="1689.794922"/>
     <use xlink:href="#DejaVuSans-69" x="1729.003906"/>
     <use xlink:href="#DejaVuSans-6f" x="1756.787109"/>
     <use xlink:href="#DejaVuSans-6e" x="1817.96875"/>
    </g>
   </g>
  </g>
 </g>
 <defs>
  <clipPath id="pea803a994e">
   <rect x="33.5" y="44.64" width="383.5" height="182.2"/>
  </clipPath>
  <clipPath id="p2df01bb115">
   <rect x="450.5" y="44.64" width="383.5" height="182.2"/>
  </clipPath>
 </defs>
</svg>
